<?xml version="1.0" encoding="UTF-8" standalone="no"?>
<!DOCTYPE svg PUBLIC "-//W3C//DTD SVG 1.1//EN" "http://www.w3.org/Graphics/SVG/1.1/DTD/svg11.dtd">
<svg width="100%" height="100%" viewBox="0 0 572 710" version="1.1" xmlns="http://www.w3.org/2000/svg" xmlns:xlink="http://www.w3.org/1999/xlink" xml:space="preserve" xmlns:serif="http://www.serif.com/" style="fill-rule:evenodd;clip-rule:evenodd;stroke-linecap:round;stroke-linejoin:round;stroke-miterlimit:1.5;">
    <g transform="matrix(1,0,0,1,-285.617,-671.649)">
        <g id="Artboard3" transform="matrix(0.565118,0,0,1.05383,267.683,-7.43728)">
            <rect x="31.734" y="644.398" width="1011.02" height="672.891" style="fill:none;"/>
            <g id="mpc" transform="matrix(4.39634,0,0,2.35755,-1539.81,812.253)">
                <g id="body" transform="matrix(0.964418,0,0,1.1464,308.481,-190.168)">
                    <path d="M286.13,213.539C286.13,209.56 282.29,206.33 277.561,206.33L60.973,206.33C56.244,206.33 52.404,209.56 52.404,213.539L52.404,343.294C52.404,347.272 56.244,350.502 60.973,350.502L277.561,350.502C282.29,350.502 286.13,347.272 286.13,343.294L286.13,213.539Z" style="fill:rgb(188,190,178);"/>
                </g>
                <g id="buttons" transform="matrix(1,0,0,1,0.20058,0)">
                    <g id="_1" serif:id="1" transform="matrix(1,0,0,0.770854,320.803,-24.9513)">
                        <path d="M78.71,250.603C78.71,250.438 78.606,250.304 78.479,250.304L68.243,250.304C68.116,250.304 68.012,250.438 68.012,250.603L68.012,255.99C68.012,256.155 68.116,256.289 68.243,256.289L78.479,256.289C78.606,256.289 78.71,256.155 78.71,255.99L78.71,250.603Z" style="fill:rgb(210,208,201);"/>
                    </g>
                    <g id="_2" serif:id="2" transform="matrix(1,0,0,0.770854,339.421,-24.9513)">
                        <path d="M78.71,250.603C78.71,250.438 78.606,250.304 78.479,250.304L68.243,250.304C68.116,250.304 68.012,250.438 68.012,250.603L68.012,255.99C68.012,256.155 68.116,256.289 68.243,256.289L78.479,256.289C78.606,256.289 78.71,256.155 78.71,255.99L78.71,250.603Z" style="fill:rgb(210,208,201);"/>
                    </g>
                    <g id="_3" serif:id="3" transform="matrix(1,0,0,0.770854,358.073,-24.9513)">
                        <path d="M78.71,250.603C78.71,250.438 78.606,250.304 78.479,250.304L68.243,250.304C68.116,250.304 68.012,250.438 68.012,250.603L68.012,255.99C68.012,256.155 68.116,256.289 68.243,256.289L78.479,256.289C78.606,256.289 78.71,256.155 78.71,255.99L78.71,250.603Z" style="fill:rgb(210,208,201);"/>
                    </g>
                    <g id="_4" serif:id="4" transform="matrix(1,0,0,0.770854,376.69,-24.9513)">
                        <path d="M78.71,250.603C78.71,250.438 78.606,250.304 78.479,250.304L68.243,250.304C68.116,250.304 68.012,250.438 68.012,250.603L68.012,255.99C68.012,256.155 68.116,256.289 68.243,256.289L78.479,256.289C78.606,256.289 78.71,256.155 78.71,255.99L78.71,250.603Z" style="fill:rgb(210,208,201);"/>
                    </g>
                    <g id="_5" serif:id="5" transform="matrix(1,0,0,0.770854,396.009,-24.9513)">
                        <path d="M78.71,250.603C78.71,250.438 78.606,250.304 78.479,250.304L68.243,250.304C68.116,250.304 68.012,250.438 68.012,250.603L68.012,255.99C68.012,256.155 68.116,256.289 68.243,256.289L78.479,256.289C78.606,256.289 78.71,256.155 78.71,255.99L78.71,250.603Z" style="fill:rgb(210,208,201);"/>
                    </g>
                </g>
                <g id="music-controller" serif:id="music controller" transform="matrix(1,0,0,1,238.302,-195.738)">
                    <g transform="matrix(0.5,0,0,1,92.6438,50.7562)">
                        <path d="M87.485,301.797C87.485,301.724 87.367,301.665 87.221,301.665L82.458,301.665C82.312,301.665 82.193,301.724 82.193,301.797L82.193,336.688C82.193,336.761 82.312,336.821 82.458,336.821L87.221,336.821C87.367,336.821 87.485,336.761 87.485,336.688L87.485,301.797Z" style="fill:rgb(204,203,194);"/>
                    </g>
                    <g transform="matrix(1.85983,0,0,0.12107,-22.8212,339.164)">
                        <path d="M87.485,303.422C87.485,302.452 87.434,301.665 87.371,301.665L82.307,301.665C82.244,301.665 82.193,302.452 82.193,303.422L82.193,335.063C82.193,336.033 82.244,336.821 82.307,336.821L87.371,336.821C87.434,336.821 87.485,336.033 87.485,335.063L87.485,303.422Z" style="fill:rgb(204,203,194);"/>
                    </g>
                </g>
                <g id="display" transform="matrix(0.852468,0,0,1,257.517,-203.804)">
                    <g id="display-frame" serif:id="display frame" transform="matrix(1.52066,0,0,1,5.15704,36.8182)">
                        <path d="M165.541,223.874C165.541,223.134 165.077,222.533 164.506,222.533L83.227,222.533C82.657,222.533 82.193,223.134 82.193,223.874L82.193,248.01C82.193,248.75 82.657,249.35 83.227,249.35L164.506,249.35C165.077,249.35 165.541,248.75 165.541,248.01L165.541,223.874Z" style="fill:rgb(20,19,27);"/>
                    </g>
                    <g id="display1" serif:id="display" transform="matrix(1.38609,0,0,0.647427,21.8261,120.005)">
                        <path d="M165.541,223.874C165.541,223.134 165.212,222.533 164.806,222.533L82.928,222.533C82.522,222.533 82.193,223.134 82.193,223.874L82.193,248.01C82.193,248.75 82.522,249.35 82.928,249.35L164.806,249.35C165.212,249.35 165.541,248.75 165.541,248.01L165.541,223.874Z" style="fill:rgb(64,118,127);"/>
                    </g>
                </g>
                <g id="button-round" serif:id="button round" transform="matrix(1,0,0,1,238.444,-205.919)">
                    <g transform="matrix(1,0,0,1,61.3646,40.5705)">
                        <circle cx="158.941" cy="294.306" r="12.976" style="fill:rgb(20,19,27);"/>
                    </g>
                    <g transform="matrix(0.355423,0,0,0.355423,163.814,223.193)">
                        <circle cx="158.941" cy="294.306" r="12.976" style="fill:rgb(51,51,51);fill-opacity:0.75;"/>
                    </g>
                </g>
                <g id="button-down" serif:id="button down" transform="matrix(1,0,0,1,238.303,-195.226)">
                    <g id="_11" serif:id="1" transform="matrix(0.675964,0,0,0.675964,84.096,158.497)">
                        <path d="M117.022,325.924C117.022,325.547 116.716,325.241 116.339,325.241L96.589,325.241C96.212,325.241 95.906,325.547 95.906,325.924L95.906,338.21C95.906,338.587 96.212,338.893 96.589,338.893L116.339,338.893C116.716,338.893 117.022,338.587 117.022,338.21L117.022,325.924Z" style="fill:rgb(128,18,27);"/>
                    </g>
                    <g id="_21" serif:id="2" transform="matrix(0.675964,0,0,0.675964,102.714,158.497)">
                        <path d="M117.022,325.924C117.022,325.547 116.716,325.241 116.339,325.241L96.589,325.241C96.212,325.241 95.906,325.547 95.906,325.924L95.906,338.21C95.906,338.587 96.212,338.893 96.589,338.893L116.339,338.893C116.716,338.893 117.022,338.587 117.022,338.21L117.022,325.924Z" style="fill:rgb(128,18,27);"/>
                    </g>
                    <g id="_31" serif:id="3" transform="matrix(0.675964,0,0,0.675964,121.366,158.497)">
                        <path d="M117.022,325.924C117.022,325.547 116.716,325.241 116.339,325.241L96.589,325.241C96.212,325.241 95.906,325.547 95.906,325.924L95.906,338.21C95.906,338.587 96.212,338.893 96.589,338.893L116.339,338.893C116.716,338.893 117.022,338.587 117.022,338.21L117.022,325.924Z" style="fill:rgb(20,19,27);"/>
                    </g>
                    <g id="_41" serif:id="4" transform="matrix(0.675964,0,0,0.675964,139.983,158.497)">
                        <path d="M117.022,325.924C117.022,325.547 116.716,325.241 116.339,325.241L96.589,325.241C96.212,325.241 95.906,325.547 95.906,325.924L95.906,338.21C95.906,338.587 96.212,338.893 96.589,338.893L116.339,338.893C116.716,338.893 117.022,338.587 117.022,338.21L117.022,325.924Z" style="fill:rgb(20,19,27);"/>
                    </g>
                    <g id="_51" serif:id="5" transform="matrix(0.675964,0,0,0.675964,159.302,158.486)">
                        <path d="M117.022,325.924C117.022,325.547 116.716,325.241 116.339,325.241L96.589,325.241C96.212,325.241 95.906,325.547 95.906,325.924L95.906,338.21C95.906,338.587 96.212,338.893 96.589,338.893L116.339,338.893C116.716,338.893 117.022,338.587 117.022,338.21L117.022,325.924Z" style="fill:rgb(20,19,27);"/>
                    </g>
                </g>
                <g id="bg_button-pats" serif:id="bg_button pats" transform="matrix(0.874914,0,0,1.15252,324.091,-202.05)">
                    <path d="M286.13,273.109C286.13,271.193 284.081,269.638 281.558,269.638L199.264,269.638C196.741,269.638 194.692,271.193 194.692,273.109L194.692,340.395C194.692,342.31 196.741,343.865 199.264,343.865L281.558,343.865C284.081,343.865 286.13,342.31 286.13,340.395L286.13,273.109Z" style="fill:rgb(109,121,127);"/>
                </g>
                <g id="button-pads" serif:id="button pads" transform="matrix(0.828992,0,0,0.843321,278.975,-150.177)">
                    <g id="_12" serif:id="1" transform="matrix(0.961019,0,0,0.961019,78.2545,52.2282)">
                        <path d="M215.81,279.652C215.81,279.209 215.444,278.85 214.994,278.85L201.016,278.85C200.566,278.85 200.201,279.209 200.201,279.652L200.201,293.657C200.201,294.1 200.566,294.459 201.016,294.459L214.994,294.459C215.444,294.459 215.81,294.1 215.81,293.657L215.81,279.652Z" style="fill:rgb(108,109,104);"/>
                    </g>
                    <g id="_22" serif:id="2" transform="matrix(0.961019,0,0,0.961019,98.2545,52.2282)">
                        <path d="M215.81,279.652C215.81,279.209 215.444,278.85 214.994,278.85L201.016,278.85C200.566,278.85 200.201,279.209 200.201,279.652L200.201,293.657C200.201,294.1 200.566,294.459 201.016,294.459L214.994,294.459C215.444,294.459 215.81,294.1 215.81,293.657L215.81,279.652Z" style="fill:rgb(108,109,104);"/>
                    </g>
                    <g id="_32" serif:id="3" transform="matrix(0.961019,0,0,0.961019,118.254,52.2282)">
                        <path d="M215.81,279.652C215.81,279.209 215.444,278.85 214.994,278.85L201.016,278.85C200.566,278.85 200.201,279.209 200.201,279.652L200.201,293.657C200.201,294.1 200.566,294.459 201.016,294.459L214.994,294.459C215.444,294.459 215.81,294.1 215.81,293.657L215.81,279.652Z" style="fill:rgb(108,109,104);"/>
                    </g>
                    <g id="_42" serif:id="4" transform="matrix(0.961019,0,0,0.961019,138.254,52.2282)">
                        <path d="M215.81,279.652C215.81,279.209 215.444,278.85 214.994,278.85L201.016,278.85C200.566,278.85 200.201,279.209 200.201,279.652L200.201,293.657C200.201,294.1 200.566,294.459 201.016,294.459L214.994,294.459C215.444,294.459 215.81,294.1 215.81,293.657L215.81,279.652Z" style="fill:rgb(108,109,104);"/>
                    </g>
                    <g id="_52" serif:id="5" transform="matrix(0.961019,0,0,0.961019,78.2545,72.2282)">
                        <path d="M215.81,279.652C215.81,279.209 215.444,278.85 214.994,278.85L201.016,278.85C200.566,278.85 200.201,279.209 200.201,279.652L200.201,293.657C200.201,294.1 200.566,294.459 201.016,294.459L214.994,294.459C215.444,294.459 215.81,294.1 215.81,293.657L215.81,279.652Z" style="fill:rgb(108,109,104);"/>
                    </g>
                    <g id="_6" serif:id="6" transform="matrix(0.961019,0,0,0.961019,98.2545,72.2282)">
                        <path d="M215.81,279.652C215.81,279.209 215.444,278.85 214.994,278.85L201.016,278.85C200.566,278.85 200.201,279.209 200.201,279.652L200.201,293.657C200.201,294.1 200.566,294.459 201.016,294.459L214.994,294.459C215.444,294.459 215.81,294.1 215.81,293.657L215.81,279.652Z" style="fill:rgb(108,109,104);"/>
                    </g>
                    <g id="_7" serif:id="7" transform="matrix(0.961019,0,0,0.961019,118.254,72.2282)">
                        <path d="M215.81,279.652C215.81,279.209 215.444,278.85 214.994,278.85L201.016,278.85C200.566,278.85 200.201,279.209 200.201,279.652L200.201,293.657C200.201,294.1 200.566,294.459 201.016,294.459L214.994,294.459C215.444,294.459 215.81,294.1 215.81,293.657L215.81,279.652Z" style="fill:rgb(108,109,104);"/>
                    </g>
                    <g id="_8" serif:id="8" transform="matrix(0.961019,0,0,0.961019,138.254,72.2282)">
                        <path d="M215.81,279.652C215.81,279.209 215.444,278.85 214.994,278.85L201.016,278.85C200.566,278.85 200.201,279.209 200.201,279.652L200.201,293.657C200.201,294.1 200.566,294.459 201.016,294.459L214.994,294.459C215.444,294.459 215.81,294.1 215.81,293.657L215.81,279.652Z" style="fill:rgb(108,109,104);"/>
                    </g>
                    <g id="_9" serif:id="9" transform="matrix(0.961019,0,0,0.961019,78.2545,92.2282)">
                        <path d="M215.81,279.652C215.81,279.209 215.444,278.85 214.994,278.85L201.016,278.85C200.566,278.85 200.201,279.209 200.201,279.652L200.201,293.657C200.201,294.1 200.566,294.459 201.016,294.459L214.994,294.459C215.444,294.459 215.81,294.1 215.81,293.657L215.81,279.652Z" style="fill:rgb(108,109,104);"/>
                    </g>
                    <g id="_10" serif:id="10" transform="matrix(0.961019,0,0,0.961019,98.2545,92.2282)">
                        <path d="M215.81,279.652C215.81,279.209 215.444,278.85 214.994,278.85L201.016,278.85C200.566,278.85 200.201,279.209 200.201,279.652L200.201,293.657C200.201,294.1 200.566,294.459 201.016,294.459L214.994,294.459C215.444,294.459 215.81,294.1 215.81,293.657L215.81,279.652Z" style="fill:rgb(108,109,104);"/>
                    </g>
                    <g id="_111" serif:id="11" transform="matrix(0.961019,0,0,0.961019,118.254,92.2282)">
                        <path d="M215.81,279.652C215.81,279.209 215.444,278.85 214.994,278.85L201.016,278.85C200.566,278.85 200.201,279.209 200.201,279.652L200.201,293.657C200.201,294.1 200.566,294.459 201.016,294.459L214.994,294.459C215.444,294.459 215.81,294.1 215.81,293.657L215.81,279.652Z" style="fill:rgb(108,109,104);"/>
                    </g>
                    <g id="_121" serif:id="12" transform="matrix(0.961019,0,0,0.961019,138.254,92.2282)">
                        <path d="M215.81,279.652C215.81,279.209 215.444,278.85 214.994,278.85L201.016,278.85C200.566,278.85 200.201,279.209 200.201,279.652L200.201,293.657C200.201,294.1 200.566,294.459 201.016,294.459L214.994,294.459C215.444,294.459 215.81,294.1 215.81,293.657L215.81,279.652Z" style="fill:rgb(108,109,104);"/>
                    </g>
                    <g id="_13" serif:id="13" transform="matrix(0.961019,0,0,0.961019,78.2545,112.228)">
                        <path d="M215.81,279.652C215.81,279.209 215.444,278.85 214.994,278.85L201.016,278.85C200.566,278.85 200.201,279.209 200.201,279.652L200.201,293.657C200.201,294.1 200.566,294.459 201.016,294.459L214.994,294.459C215.444,294.459 215.81,294.1 215.81,293.657L215.81,279.652Z" style="fill:rgb(108,109,104);"/>
                    </g>
                    <g id="_14" serif:id="14" transform="matrix(0.961019,0,0,0.961019,98.2545,112.228)">
                        <path d="M215.81,279.652C215.81,279.209 215.444,278.85 214.994,278.85L201.016,278.85C200.566,278.85 200.201,279.209 200.201,279.652L200.201,293.657C200.201,294.1 200.566,294.459 201.016,294.459L214.994,294.459C215.444,294.459 215.81,294.1 215.81,293.657L215.81,279.652Z" style="fill:rgb(108,109,104);"/>
                    </g>
                    <g id="_15" serif:id="15" transform="matrix(0.961019,0,0,0.961019,118.254,112.228)">
                        <path d="M215.81,279.652C215.81,279.209 215.444,278.85 214.994,278.85L201.016,278.85C200.566,278.85 200.201,279.209 200.201,279.652L200.201,293.657C200.201,294.1 200.566,294.459 201.016,294.459L214.994,294.459C215.444,294.459 215.81,294.1 215.81,293.657L215.81,279.652Z" style="fill:rgb(108,109,104);"/>
                    </g>
                    <g id="_16" serif:id="16" transform="matrix(0.961019,0,0,0.961019,138.254,112.228)">
                        <path d="M215.81,279.652C215.81,279.209 215.444,278.85 214.994,278.85L201.016,278.85C200.566,278.85 200.201,279.209 200.201,279.652L200.201,293.657C200.201,294.1 200.566,294.459 201.016,294.459L214.994,294.459C215.444,294.459 215.81,294.1 215.81,293.657L215.81,279.652Z" style="fill:rgb(108,109,104);"/>
                    </g>
                </g>
                <g id="volume-buttons" serif:id="volume buttons" transform="matrix(1,0,0,1,221.089,-184.517)">
                    <g id="bg" transform="matrix(0.874914,0,0,0.315134,103.002,174.866)">
                        <path d="M286.13,273.349C286.13,271.301 285.531,269.638 284.793,269.638L196.029,269.638C195.291,269.638 194.692,271.301 194.692,273.349L194.692,340.154C194.692,342.202 195.291,343.865 196.029,343.865L284.793,343.865C285.531,343.865 286.13,342.202 286.13,340.154L286.13,273.349Z" style="fill:rgb(109,121,127);"/>
                    </g>
                    <g id="button-round-small" serif:id="button round small" transform="matrix(1,0,0,1,6.34251,-2.26902)">
                        <g transform="matrix(1,-0.000495086,0.000495086,1,67.6251,40.6925)">
                            <circle cx="246.505" cy="233.232" r="6.094" style="fill:rgb(255,101,132);"/>
                        </g>
                        <g transform="matrix(1,0,0,0.845467,67.7405,76.6126)">
                            <path d="M246.505,227.138L246.505,233.232" style="fill:none;stroke:black;stroke-width:0.87px;"/>
                        </g>
                    </g>
                    <g id="button-round-small1" serif:id="button round small" transform="matrix(1,0,0,1,23.5307,-2.26902)">
                        <g transform="matrix(1,0,0,1,67.7405,40.5705)">
                            <circle cx="246.505" cy="233.232" r="6.094" style="fill:rgb(210,208,201);"/>
                        </g>
                        <g transform="matrix(1,0,0,0.845467,67.7405,76.6126)">
                            <path d="M246.505,227.138L246.505,233.232" style="fill:none;stroke:black;stroke-width:0.87px;"/>
                        </g>
                    </g>
                </g>
                <g id="telephone-buttons" serif:id="telephone buttons" transform="matrix(1,0,0,1,242.273,-198.272)">
                    <g id="_17" serif:id="1" transform="matrix(1,0,0,0.669831,72.1323,146.592)">
                        <path d="M78.71,250.603C78.71,250.438 78.62,250.304 78.509,250.304L68.213,250.304C68.102,250.304 68.012,250.438 68.012,250.603L68.012,255.99C68.012,256.155 68.102,256.289 68.213,256.289L78.509,256.289C78.62,256.289 78.71,256.155 78.71,255.99L78.71,250.603Z" style="fill:rgb(26,45,78);"/>
                    </g>
                    <g id="_23" serif:id="2" transform="matrix(1,0,0,0.669831,87.8295,146.592)">
                        <path d="M78.71,250.603C78.71,250.438 78.62,250.304 78.509,250.304L68.213,250.304C68.102,250.304 68.012,250.438 68.012,250.603L68.012,255.99C68.012,256.155 68.102,256.289 68.213,256.289L78.509,256.289C78.62,256.289 78.71,256.155 78.71,255.99L78.71,250.603Z" style="fill:rgb(26,45,78);"/>
                    </g>
                    <g id="_33" serif:id="3" transform="matrix(1,0,0,0.669831,103.527,146.592)">
                        <path d="M78.71,250.603C78.71,250.438 78.62,250.304 78.509,250.304L68.213,250.304C68.102,250.304 68.012,250.438 68.012,250.603L68.012,255.99C68.012,256.155 68.102,256.289 68.213,256.289L78.509,256.289C78.62,256.289 78.71,256.155 78.71,255.99L78.71,250.603Z" style="fill:rgb(26,45,78);"/>
                    </g>
                    <g id="_43" serif:id="4" transform="matrix(1,0,0,0.669831,72.1323,155.592)">
                        <path d="M78.71,250.603C78.71,250.438 78.62,250.304 78.509,250.304L68.213,250.304C68.102,250.304 68.012,250.438 68.012,250.603L68.012,255.99C68.012,256.155 68.102,256.289 68.213,256.289L78.509,256.289C78.62,256.289 78.71,256.155 78.71,255.99L78.71,250.603Z" style="fill:rgb(26,45,78);"/>
                    </g>
                    <g id="_53" serif:id="5" transform="matrix(1,0,0,0.669831,87.8295,155.592)">
                        <path d="M78.71,250.603C78.71,250.438 78.62,250.304 78.509,250.304L68.213,250.304C68.102,250.304 68.012,250.438 68.012,250.603L68.012,255.99C68.012,256.155 68.102,256.289 68.213,256.289L78.509,256.289C78.62,256.289 78.71,256.155 78.71,255.99L78.71,250.603Z" style="fill:rgb(26,45,78);"/>
                    </g>
                    <g id="_61" serif:id="6" transform="matrix(1,0,0,0.669831,103.527,155.592)">
                        <path d="M78.71,250.603C78.71,250.438 78.62,250.304 78.509,250.304L68.213,250.304C68.102,250.304 68.012,250.438 68.012,250.603L68.012,255.99C68.012,256.155 68.102,256.289 68.213,256.289L78.509,256.289C78.62,256.289 78.71,256.155 78.71,255.99L78.71,250.603Z" style="fill:rgb(26,45,78);"/>
                    </g>
                    <g id="_71" serif:id="7" transform="matrix(1,0,0,0.669831,72.1323,164.592)">
                        <path d="M78.71,250.603C78.71,250.438 78.62,250.304 78.509,250.304L68.213,250.304C68.102,250.304 68.012,250.438 68.012,250.603L68.012,255.99C68.012,256.155 68.102,256.289 68.213,256.289L78.509,256.289C78.62,256.289 78.71,256.155 78.71,255.99L78.71,250.603Z" style="fill:rgb(26,45,78);"/>
                    </g>
                    <g id="_81" serif:id="8" transform="matrix(1,0,0,0.669831,87.8295,164.592)">
                        <path d="M78.71,250.603C78.71,250.438 78.62,250.304 78.509,250.304L68.213,250.304C68.102,250.304 68.012,250.438 68.012,250.603L68.012,255.99C68.012,256.155 68.102,256.289 68.213,256.289L78.509,256.289C78.62,256.289 78.71,256.155 78.71,255.99L78.71,250.603Z" style="fill:rgb(26,45,78);"/>
                    </g>
                    <g id="_91" serif:id="9" transform="matrix(1,0,0,0.669831,103.527,164.592)">
                        <path d="M78.71,250.603C78.71,250.438 78.62,250.304 78.509,250.304L68.213,250.304C68.102,250.304 68.012,250.438 68.012,250.603L68.012,255.99C68.012,256.155 68.102,256.289 68.213,256.289L78.509,256.289C78.62,256.289 78.71,256.155 78.71,255.99L78.71,250.603Z" style="fill:rgb(26,45,78);"/>
                    </g>
                    <g id="_101" serif:id="10" transform="matrix(1,0,0,0.669831,72.1323,173.592)">
                        <path d="M78.71,250.603C78.71,250.438 78.62,250.304 78.509,250.304L68.213,250.304C68.102,250.304 68.012,250.438 68.012,250.603L68.012,255.99C68.012,256.155 68.102,256.289 68.213,256.289L78.509,256.289C78.62,256.289 78.71,256.155 78.71,255.99L78.71,250.603Z" style="fill:rgb(159,164,159);"/>
                    </g>
                    <g id="_112" serif:id="11" transform="matrix(1,0,0,0.669831,87.8295,173.592)">
                        <path d="M78.71,250.603C78.71,250.438 78.62,250.304 78.509,250.304L68.213,250.304C68.102,250.304 68.012,250.438 68.012,250.603L68.012,255.99C68.012,256.155 68.102,256.289 68.213,256.289L78.509,256.289C78.62,256.289 78.71,256.155 78.71,255.99L78.71,250.603Z" style="fill:rgb(26,45,78);"/>
                    </g>
                    <g id="_122" serif:id="12" transform="matrix(1,0,0,0.669831,103.527,173.592)">
                        <path d="M78.71,250.603C78.71,250.438 78.62,250.304 78.509,250.304L68.213,250.304C68.102,250.304 68.012,250.438 68.012,250.603L68.012,255.99C68.012,256.155 68.102,256.289 68.213,256.289L78.509,256.289C78.62,256.289 78.71,256.155 78.71,255.99L78.71,250.603Z" style="fill:rgb(159,164,159);"/>
                    </g>
                </g>
                <g id="buttons-small" serif:id="buttons small" transform="matrix(1,0,0,1,232.826,-202.316)">
                    <g id="_18" serif:id="1" transform="matrix(1,0,0,0.669831,77.0538,123.678)">
                        <path d="M78.71,250.603C78.71,250.438 78.62,250.304 78.509,250.304L68.213,250.304C68.102,250.304 68.012,250.438 68.012,250.603L68.012,255.99C68.012,256.155 68.102,256.289 68.213,256.289L78.509,256.289C78.62,256.289 78.71,256.155 78.71,255.99L78.71,250.603Z" style="fill:rgb(210,208,201);"/>
                    </g>
                    <g id="_24" serif:id="2" transform="matrix(1,0,0,0.669831,92.751,123.678)">
                        <path d="M78.71,250.603C78.71,250.438 78.62,250.304 78.509,250.304L68.213,250.304C68.102,250.304 68.012,250.438 68.012,250.603L68.012,255.99C68.012,256.155 68.102,256.289 68.213,256.289L78.509,256.289C78.62,256.289 78.71,256.155 78.71,255.99L78.71,250.603Z" style="fill:rgb(210,208,201);"/>
                    </g>
                    <g id="_34" serif:id="3" transform="matrix(1,0,0,0.669831,108.448,123.678)">
                        <path d="M78.71,250.603C78.71,250.438 78.62,250.304 78.509,250.304L68.213,250.304C68.102,250.304 68.012,250.438 68.012,250.603L68.012,255.99C68.012,256.155 68.102,256.289 68.213,256.289L78.509,256.289C78.62,256.289 78.71,256.155 78.71,255.99L78.71,250.603Z" style="fill:rgb(210,208,201);"/>
                    </g>
                    <g id="_44" serif:id="4" transform="matrix(1,0,0,0.669831,124.145,123.678)">
                        <path d="M78.71,250.603C78.71,250.438 78.62,250.304 78.509,250.304L68.213,250.304C68.102,250.304 68.012,250.438 68.012,250.603L68.012,255.99C68.012,256.155 68.102,256.289 68.213,256.289L78.509,256.289C78.62,256.289 78.71,256.155 78.71,255.99L78.71,250.603Z" style="fill:rgb(210,208,201);"/>
                    </g>
                    <g id="_54" serif:id="5" transform="matrix(1,0,0,0.669831,139.843,123.678)">
                        <path d="M78.71,250.603C78.71,250.438 78.62,250.304 78.509,250.304L68.213,250.304C68.102,250.304 68.012,250.438 68.012,250.603L68.012,255.99C68.012,256.155 68.102,256.289 68.213,256.289L78.509,256.289C78.62,256.289 78.71,256.155 78.71,255.99L78.71,250.603Z" style="fill:rgb(210,208,201);"/>
                    </g>
                    <g id="_62" serif:id="6" transform="matrix(1,0,0,0.669831,155.54,123.678)">
                        <path d="M78.71,250.603C78.71,250.438 78.62,250.304 78.509,250.304L68.213,250.304C68.102,250.304 68.012,250.438 68.012,250.603L68.012,255.99C68.012,256.155 68.102,256.289 68.213,256.289L78.509,256.289C78.62,256.289 78.71,256.155 78.71,255.99L78.71,250.603Z" style="fill:rgb(210,208,201);"/>
                    </g>
                </g>
                <g transform="matrix(2.11626,0,0,2.11626,-264.474,-403.006)">
                    <g transform="matrix(12,0,0,12,302.77,226.377)">
                        <path d="M0.16,-0.24C0.163,-0.229 0.164,-0.216 0.164,-0.2C0.164,-0.185 0.163,-0.171 0.16,-0.16C0.163,-0.149 0.164,-0.136 0.164,-0.12C0.164,-0.105 0.163,-0.091 0.16,-0.08L0.32,-0.08C0.323,-0.069 0.324,-0.056 0.324,-0.04C0.324,-0.025 0.323,-0.011 0.32,0L0.08,0C0.077,-0.011 0.076,-0.025 0.076,-0.04C0.076,-0.056 0.077,-0.069 0.08,-0.08C0.077,-0.091 0.076,-0.105 0.076,-0.12C0.076,-0.136 0.077,-0.149 0.08,-0.16C0.077,-0.171 0.076,-0.185 0.076,-0.2C0.076,-0.216 0.077,-0.229 0.08,-0.24C0.077,-0.251 0.076,-0.265 0.076,-0.28C0.076,-0.296 0.077,-0.309 0.08,-0.32C0.077,-0.331 0.076,-0.345 0.076,-0.36C0.076,-0.376 0.077,-0.389 0.08,-0.4C0.077,-0.411 0.076,-0.425 0.076,-0.44C0.076,-0.456 0.077,-0.469 0.08,-0.48C0.077,-0.491 0.076,-0.505 0.076,-0.52C0.076,-0.536 0.077,-0.549 0.08,-0.56L0.32,-0.56C0.323,-0.549 0.324,-0.536 0.324,-0.52C0.324,-0.505 0.323,-0.491 0.32,-0.48L0.16,-0.48C0.163,-0.469 0.164,-0.456 0.164,-0.44C0.164,-0.425 0.163,-0.411 0.16,-0.4C0.163,-0.389 0.164,-0.376 0.164,-0.36C0.164,-0.345 0.163,-0.331 0.16,-0.32L0.32,-0.32C0.323,-0.309 0.324,-0.296 0.324,-0.28C0.324,-0.265 0.323,-0.251 0.32,-0.24L0.16,-0.24Z" style="fill:rgb(255,101,132);fill-rule:nonzero;"/>
                    </g>
                    <g transform="matrix(12,0,0,12,307.57,226.377)">
                        <path d="M0.36,-0.32C0.363,-0.309 0.364,-0.296 0.364,-0.28C0.364,-0.265 0.363,-0.251 0.36,-0.24L0.28,-0.24C0.277,-0.251 0.276,-0.265 0.276,-0.28C0.276,-0.296 0.277,-0.309 0.28,-0.32L0.21,-0.32C0.213,-0.309 0.214,-0.296 0.214,-0.28C0.214,-0.265 0.213,-0.251 0.21,-0.24L0.18,-0.24C0.183,-0.229 0.184,-0.216 0.184,-0.2C0.184,-0.185 0.183,-0.171 0.18,-0.16C0.183,-0.149 0.184,-0.136 0.184,-0.12C0.184,-0.105 0.183,-0.091 0.18,-0.08L0.24,-0.08C0.243,-0.069 0.244,-0.056 0.244,-0.04C0.244,-0.025 0.243,-0.011 0.24,0L0.04,0C0.037,-0.011 0.036,-0.025 0.036,-0.04C0.036,-0.056 0.037,-0.069 0.04,-0.08L0.1,-0.08C0.097,-0.091 0.096,-0.105 0.096,-0.12C0.096,-0.136 0.097,-0.149 0.1,-0.16C0.097,-0.171 0.096,-0.185 0.096,-0.2C0.096,-0.216 0.097,-0.229 0.1,-0.24C0.097,-0.251 0.096,-0.265 0.096,-0.28C0.096,-0.296 0.097,-0.309 0.1,-0.32L0.04,-0.32C0.037,-0.331 0.036,-0.345 0.036,-0.36C0.036,-0.376 0.037,-0.389 0.04,-0.4L0.14,-0.4C0.143,-0.389 0.144,-0.376 0.144,-0.36C0.144,-0.345 0.143,-0.331 0.14,-0.32L0.18,-0.32C0.177,-0.331 0.176,-0.345 0.176,-0.36C0.176,-0.376 0.177,-0.389 0.18,-0.4L0.33,-0.4C0.333,-0.389 0.334,-0.376 0.334,-0.36C0.334,-0.345 0.333,-0.331 0.33,-0.32L0.36,-0.32Z" style="fill:rgb(255,101,132);fill-rule:nonzero;"/>
                    </g>
                    <g transform="matrix(12,0,0,12,312.37,226.377)">
                        <path d="M0.36,-0.32C0.363,-0.309 0.364,-0.296 0.364,-0.28C0.364,-0.265 0.363,-0.251 0.36,-0.24L0.28,-0.24C0.277,-0.251 0.276,-0.265 0.276,-0.28C0.276,-0.296 0.277,-0.309 0.28,-0.32L0.21,-0.32C0.213,-0.309 0.214,-0.296 0.214,-0.28C0.214,-0.265 0.213,-0.251 0.21,-0.24L0.18,-0.24C0.183,-0.229 0.184,-0.216 0.184,-0.2C0.184,-0.185 0.183,-0.171 0.18,-0.16C0.183,-0.149 0.184,-0.136 0.184,-0.12C0.184,-0.105 0.183,-0.091 0.18,-0.08L0.24,-0.08C0.243,-0.069 0.244,-0.056 0.244,-0.04C0.244,-0.025 0.243,-0.011 0.24,0L0.04,0C0.037,-0.011 0.036,-0.025 0.036,-0.04C0.036,-0.056 0.037,-0.069 0.04,-0.08L0.1,-0.08C0.097,-0.091 0.096,-0.105 0.096,-0.12C0.096,-0.136 0.097,-0.149 0.1,-0.16C0.097,-0.171 0.096,-0.185 0.096,-0.2C0.096,-0.216 0.097,-0.229 0.1,-0.24C0.097,-0.251 0.096,-0.265 0.096,-0.28C0.096,-0.296 0.097,-0.309 0.1,-0.32L0.04,-0.32C0.037,-0.331 0.036,-0.345 0.036,-0.36C0.036,-0.376 0.037,-0.389 0.04,-0.4L0.14,-0.4C0.143,-0.389 0.144,-0.376 0.144,-0.36C0.144,-0.345 0.143,-0.331 0.14,-0.32L0.18,-0.32C0.177,-0.331 0.176,-0.345 0.176,-0.36C0.176,-0.376 0.177,-0.389 0.18,-0.4L0.33,-0.4C0.333,-0.389 0.334,-0.376 0.334,-0.36C0.334,-0.345 0.333,-0.331 0.33,-0.32L0.36,-0.32Z" style="fill:rgb(255,101,132);fill-rule:nonzero;"/>
                    </g>
                    <g transform="matrix(12,0,0,12,317.17,226.377)">
                        <path d="M0.364,-0.2C0.364,-0.185 0.363,-0.171 0.36,-0.16L0.33,-0.16C0.333,-0.149 0.334,-0.136 0.334,-0.12C0.334,-0.105 0.333,-0.091 0.33,-0.08L0.28,-0.08C0.283,-0.069 0.284,-0.056 0.284,-0.04C0.284,-0.025 0.283,-0.011 0.28,0L0.12,0C0.117,-0.011 0.116,-0.025 0.116,-0.04C0.116,-0.056 0.117,-0.069 0.12,-0.08L0.07,-0.08C0.067,-0.091 0.066,-0.105 0.066,-0.12C0.066,-0.136 0.067,-0.149 0.07,-0.16L0.04,-0.16C0.037,-0.171 0.036,-0.185 0.036,-0.2C0.036,-0.216 0.037,-0.229 0.04,-0.24L0.07,-0.24C0.067,-0.251 0.066,-0.265 0.066,-0.28C0.066,-0.296 0.067,-0.309 0.07,-0.32L0.12,-0.32C0.117,-0.331 0.116,-0.345 0.116,-0.36C0.116,-0.376 0.117,-0.389 0.12,-0.4L0.28,-0.4C0.283,-0.389 0.284,-0.376 0.284,-0.36C0.284,-0.345 0.283,-0.331 0.28,-0.32L0.33,-0.32C0.333,-0.309 0.334,-0.296 0.334,-0.28C0.334,-0.265 0.333,-0.251 0.33,-0.24L0.36,-0.24C0.363,-0.229 0.364,-0.216 0.364,-0.2ZM0.28,-0.16C0.277,-0.171 0.276,-0.185 0.276,-0.2C0.276,-0.216 0.277,-0.229 0.28,-0.24L0.25,-0.24C0.247,-0.251 0.246,-0.265 0.246,-0.28C0.246,-0.296 0.247,-0.309 0.25,-0.32L0.15,-0.32C0.153,-0.309 0.154,-0.296 0.154,-0.28C0.154,-0.265 0.153,-0.251 0.15,-0.24L0.12,-0.24C0.123,-0.229 0.124,-0.216 0.124,-0.2C0.124,-0.185 0.123,-0.171 0.12,-0.16L0.15,-0.16C0.153,-0.149 0.154,-0.136 0.154,-0.12C0.154,-0.105 0.153,-0.091 0.15,-0.08L0.25,-0.08C0.247,-0.091 0.246,-0.105 0.246,-0.12C0.246,-0.136 0.247,-0.149 0.25,-0.16L0.28,-0.16Z" style="fill:rgb(255,101,132);fill-rule:nonzero;"/>
                    </g>
                    <g transform="matrix(12,0,0,12,321.97,226.377)">
                        <path d="M0.36,-0.32C0.363,-0.309 0.364,-0.296 0.364,-0.28C0.364,-0.265 0.363,-0.251 0.36,-0.24L0.28,-0.24C0.277,-0.251 0.276,-0.265 0.276,-0.28C0.276,-0.296 0.277,-0.309 0.28,-0.32L0.21,-0.32C0.213,-0.309 0.214,-0.296 0.214,-0.28C0.214,-0.265 0.213,-0.251 0.21,-0.24L0.18,-0.24C0.183,-0.229 0.184,-0.216 0.184,-0.2C0.184,-0.185 0.183,-0.171 0.18,-0.16C0.183,-0.149 0.184,-0.136 0.184,-0.12C0.184,-0.105 0.183,-0.091 0.18,-0.08L0.24,-0.08C0.243,-0.069 0.244,-0.056 0.244,-0.04C0.244,-0.025 0.243,-0.011 0.24,0L0.04,0C0.037,-0.011 0.036,-0.025 0.036,-0.04C0.036,-0.056 0.037,-0.069 0.04,-0.08L0.1,-0.08C0.097,-0.091 0.096,-0.105 0.096,-0.12C0.096,-0.136 0.097,-0.149 0.1,-0.16C0.097,-0.171 0.096,-0.185 0.096,-0.2C0.096,-0.216 0.097,-0.229 0.1,-0.24C0.097,-0.251 0.096,-0.265 0.096,-0.28C0.096,-0.296 0.097,-0.309 0.1,-0.32L0.04,-0.32C0.037,-0.331 0.036,-0.345 0.036,-0.36C0.036,-0.376 0.037,-0.389 0.04,-0.4L0.14,-0.4C0.143,-0.389 0.144,-0.376 0.144,-0.36C0.144,-0.345 0.143,-0.331 0.14,-0.32L0.18,-0.32C0.177,-0.331 0.176,-0.345 0.176,-0.36C0.176,-0.376 0.177,-0.389 0.18,-0.4L0.33,-0.4C0.333,-0.389 0.334,-0.376 0.334,-0.36C0.334,-0.345 0.333,-0.331 0.33,-0.32L0.36,-0.32Z" style="fill:rgb(255,101,132);fill-rule:nonzero;"/>
                    </g>
                    <g transform="matrix(12,0,0,12,331.57,226.377)">
                        <path d="M0.364,-0.2C0.364,-0.185 0.363,-0.171 0.36,-0.16L0.32,-0.16C0.323,-0.149 0.324,-0.136 0.324,-0.12C0.324,-0.105 0.323,-0.091 0.32,-0.08C0.323,-0.069 0.324,-0.056 0.324,-0.04C0.324,-0.025 0.323,-0.011 0.32,0L0.24,0C0.237,-0.011 0.236,-0.025 0.236,-0.04C0.236,-0.056 0.237,-0.069 0.24,-0.08C0.237,-0.091 0.236,-0.105 0.236,-0.12C0.236,-0.136 0.237,-0.149 0.24,-0.16L0.04,-0.16C0.037,-0.171 0.036,-0.185 0.036,-0.2C0.036,-0.216 0.037,-0.229 0.04,-0.24L0.07,-0.24C0.067,-0.251 0.066,-0.265 0.066,-0.28C0.066,-0.296 0.067,-0.309 0.07,-0.32L0.1,-0.32C0.097,-0.331 0.096,-0.345 0.096,-0.36C0.096,-0.376 0.097,-0.389 0.1,-0.4L0.13,-0.4C0.127,-0.411 0.126,-0.425 0.126,-0.44C0.126,-0.456 0.127,-0.469 0.13,-0.48L0.18,-0.48C0.183,-0.469 0.184,-0.456 0.184,-0.44C0.184,-0.425 0.183,-0.411 0.18,-0.4L0.15,-0.4C0.153,-0.389 0.154,-0.376 0.154,-0.36C0.154,-0.345 0.153,-0.331 0.15,-0.32L0.12,-0.32C0.123,-0.309 0.124,-0.296 0.124,-0.28C0.124,-0.265 0.123,-0.251 0.12,-0.24L0.24,-0.24C0.237,-0.251 0.236,-0.265 0.236,-0.28C0.236,-0.296 0.237,-0.309 0.24,-0.32C0.237,-0.331 0.236,-0.345 0.236,-0.36C0.236,-0.376 0.237,-0.389 0.24,-0.4C0.237,-0.411 0.236,-0.425 0.236,-0.44C0.236,-0.456 0.237,-0.469 0.24,-0.48L0.18,-0.48C0.177,-0.491 0.176,-0.505 0.176,-0.52C0.176,-0.536 0.177,-0.549 0.18,-0.56L0.32,-0.56C0.323,-0.549 0.324,-0.536 0.324,-0.52C0.324,-0.505 0.323,-0.491 0.32,-0.48C0.323,-0.469 0.324,-0.456 0.324,-0.44C0.324,-0.425 0.323,-0.411 0.32,-0.4C0.323,-0.389 0.324,-0.376 0.324,-0.36C0.324,-0.345 0.323,-0.331 0.32,-0.32C0.323,-0.309 0.324,-0.296 0.324,-0.28C0.324,-0.265 0.323,-0.251 0.32,-0.24L0.36,-0.24C0.363,-0.229 0.364,-0.216 0.364,-0.2Z" style="fill:rgb(255,101,132);fill-rule:nonzero;"/>
                    </g>
                    <g transform="matrix(12,0,0,12,336.37,226.377)">
                        <path d="M0.254,-0.52C0.254,-0.505 0.253,-0.491 0.25,-0.48L0.15,-0.48C0.147,-0.491 0.146,-0.505 0.146,-0.52C0.146,-0.536 0.147,-0.549 0.15,-0.56L0.25,-0.56C0.253,-0.549 0.254,-0.536 0.254,-0.52ZM0.15,-0.16C0.153,-0.149 0.154,-0.136 0.154,-0.12C0.154,-0.105 0.153,-0.091 0.15,-0.08L0.1,-0.08C0.097,-0.091 0.096,-0.105 0.096,-0.12C0.096,-0.136 0.097,-0.149 0.1,-0.16L0.07,-0.16C0.067,-0.171 0.066,-0.185 0.066,-0.2C0.066,-0.216 0.067,-0.229 0.07,-0.24C0.067,-0.251 0.066,-0.265 0.066,-0.28C0.066,-0.296 0.067,-0.309 0.07,-0.32C0.067,-0.331 0.066,-0.345 0.066,-0.36C0.066,-0.376 0.067,-0.389 0.07,-0.4L0.1,-0.4C0.097,-0.411 0.096,-0.425 0.096,-0.44C0.096,-0.456 0.097,-0.469 0.1,-0.48L0.15,-0.48C0.153,-0.469 0.154,-0.456 0.154,-0.44C0.154,-0.425 0.153,-0.411 0.15,-0.4C0.153,-0.389 0.154,-0.376 0.154,-0.36C0.154,-0.345 0.153,-0.331 0.15,-0.32C0.153,-0.309 0.154,-0.296 0.154,-0.28C0.154,-0.265 0.153,-0.251 0.15,-0.24C0.153,-0.229 0.154,-0.216 0.154,-0.2C0.154,-0.185 0.153,-0.171 0.15,-0.16ZM0.33,-0.32C0.333,-0.309 0.334,-0.296 0.334,-0.28C0.334,-0.265 0.333,-0.251 0.33,-0.24C0.333,-0.229 0.334,-0.216 0.334,-0.2C0.334,-0.185 0.333,-0.171 0.33,-0.16L0.3,-0.16C0.303,-0.149 0.304,-0.136 0.304,-0.12C0.304,-0.105 0.303,-0.091 0.3,-0.08L0.25,-0.08C0.247,-0.091 0.246,-0.105 0.246,-0.12C0.246,-0.136 0.247,-0.149 0.25,-0.16C0.247,-0.171 0.246,-0.185 0.246,-0.2C0.246,-0.216 0.247,-0.229 0.25,-0.24C0.247,-0.251 0.246,-0.265 0.246,-0.28C0.246,-0.296 0.247,-0.309 0.25,-0.32C0.247,-0.331 0.246,-0.345 0.246,-0.36C0.246,-0.376 0.247,-0.389 0.25,-0.4C0.247,-0.411 0.246,-0.425 0.246,-0.44C0.246,-0.456 0.247,-0.469 0.25,-0.48L0.3,-0.48C0.303,-0.469 0.304,-0.456 0.304,-0.44C0.304,-0.425 0.303,-0.411 0.3,-0.4L0.33,-0.4C0.333,-0.389 0.334,-0.376 0.334,-0.36C0.334,-0.345 0.333,-0.331 0.33,-0.32ZM0.146,-0.04C0.146,-0.056 0.147,-0.069 0.15,-0.08L0.25,-0.08C0.253,-0.069 0.254,-0.056 0.254,-0.04C0.254,-0.025 0.253,-0.011 0.25,0L0.15,0C0.147,-0.011 0.146,-0.025 0.146,-0.04Z" style="fill:rgb(255,101,132);fill-rule:nonzero;"/>
                    </g>
                    <g transform="matrix(12,0,0,12,341.17,226.377)">
                        <path d="M0.364,-0.2C0.364,-0.185 0.363,-0.171 0.36,-0.16L0.32,-0.16C0.323,-0.149 0.324,-0.136 0.324,-0.12C0.324,-0.105 0.323,-0.091 0.32,-0.08C0.323,-0.069 0.324,-0.056 0.324,-0.04C0.324,-0.025 0.323,-0.011 0.32,0L0.24,0C0.237,-0.011 0.236,-0.025 0.236,-0.04C0.236,-0.056 0.237,-0.069 0.24,-0.08C0.237,-0.091 0.236,-0.105 0.236,-0.12C0.236,-0.136 0.237,-0.149 0.24,-0.16L0.04,-0.16C0.037,-0.171 0.036,-0.185 0.036,-0.2C0.036,-0.216 0.037,-0.229 0.04,-0.24L0.07,-0.24C0.067,-0.251 0.066,-0.265 0.066,-0.28C0.066,-0.296 0.067,-0.309 0.07,-0.32L0.1,-0.32C0.097,-0.331 0.096,-0.345 0.096,-0.36C0.096,-0.376 0.097,-0.389 0.1,-0.4L0.13,-0.4C0.127,-0.411 0.126,-0.425 0.126,-0.44C0.126,-0.456 0.127,-0.469 0.13,-0.48L0.18,-0.48C0.183,-0.469 0.184,-0.456 0.184,-0.44C0.184,-0.425 0.183,-0.411 0.18,-0.4L0.15,-0.4C0.153,-0.389 0.154,-0.376 0.154,-0.36C0.154,-0.345 0.153,-0.331 0.15,-0.32L0.12,-0.32C0.123,-0.309 0.124,-0.296 0.124,-0.28C0.124,-0.265 0.123,-0.251 0.12,-0.24L0.24,-0.24C0.237,-0.251 0.236,-0.265 0.236,-0.28C0.236,-0.296 0.237,-0.309 0.24,-0.32C0.237,-0.331 0.236,-0.345 0.236,-0.36C0.236,-0.376 0.237,-0.389 0.24,-0.4C0.237,-0.411 0.236,-0.425 0.236,-0.44C0.236,-0.456 0.237,-0.469 0.24,-0.48L0.18,-0.48C0.177,-0.491 0.176,-0.505 0.176,-0.52C0.176,-0.536 0.177,-0.549 0.18,-0.56L0.32,-0.56C0.323,-0.549 0.324,-0.536 0.324,-0.52C0.324,-0.505 0.323,-0.491 0.32,-0.48C0.323,-0.469 0.324,-0.456 0.324,-0.44C0.324,-0.425 0.323,-0.411 0.32,-0.4C0.323,-0.389 0.324,-0.376 0.324,-0.36C0.324,-0.345 0.323,-0.331 0.32,-0.32C0.323,-0.309 0.324,-0.296 0.324,-0.28C0.324,-0.265 0.323,-0.251 0.32,-0.24L0.36,-0.24C0.363,-0.229 0.364,-0.216 0.364,-0.2Z" style="fill:rgb(255,101,132);fill-rule:nonzero;"/>
                    </g>
                </g>
            </g>
            <g id="girl" transform="matrix(-2.64471,0,0,1.10084,1549.72,434.137)">
                <g id="neck" transform="matrix(0.776205,0,0,1,132.568,-54.4255)">
                    <path d="M372.964,332.477C372.532,332.876 393.109,324.422 393.109,324.422C393.109,324.422 393.155,329.902 393.563,330.971C394.01,332.143 396.642,338.652 397.333,339.35C398.316,340.344 398.608,341.41 399.027,341.934C399.165,342.106 402.015,344.449 402.015,344.449L405.105,347.805L409.933,354.052C409.933,354.052 408.882,352.687 407.387,352.221C405.891,351.755 406.081,351.333 403.021,351.574C399.961,351.815 398.58,352.592 398.496,352.606C398.412,352.619 396.973,353.307 396.973,353.307C396.973,353.307 395.109,354.267 393.656,356.442C392.203,358.617 389.191,361.013 386.547,364.233C383.902,367.453 377.14,372.202 377.14,372.202L373.469,375.068L362.645,375.068L364.083,366.085C364.083,366.085 369.616,359.53 369.67,359.133C369.723,358.735 374.226,351.651 374.468,350.918C374.725,350.137 379.228,348.495 379.254,347.971L379.28,347.446C379.28,347.446 377.977,339.707 376.35,337.778C374.411,335.478 373.395,332.078 372.964,332.477Z" style="fill:rgb(160,97,106);"/>
                </g>
                <g id="legs">
                    <g id="right-leg" serif:id="right leg" transform="matrix(0.821866,-0.471134,0.384822,1.1142,-51.499,9.42782)">
                        <g id="leg-right" serif:id="leg right" transform="matrix(1.9913,0.263357,-0.263357,1.9913,-422.256,-499.713)">
                            <path d="M386.642,460.573C386.713,460.881 387.159,461.949 386.819,462.861C386.503,463.707 385.993,463.894 384.96,463.903C384.569,463.906 381.033,463.375 380.235,463.139C379.436,462.902 375.565,462.205 375.565,462.205C375.565,462.205 373.709,462.687 372.831,462.861C371.952,463.036 369.603,463.351 369.422,463.346C369.24,463.34 364.423,463.43 364.201,463.433C363.468,463.443 361.458,462.937 361.011,462.575C360.604,462.245 360.56,461.976 360.659,461.719C360.847,461.235 361.093,460.997 361.188,460.985C361.284,460.974 361.973,461.223 362.474,461.172C362.974,461.121 365.94,460.357 366.619,459.958C367.297,459.558 369.085,458.472 369.368,458.27C369.747,458 371.451,456.653 371.775,456.389C371.955,456.243 373.536,454.927 373.977,454.487C374.419,454.047 375.491,453.074 376.005,452.367C376.428,451.787 377.401,450.754 377.89,450.02C378.378,449.286 381.326,445.768 381.801,445.097C382.277,444.427 383.418,443.056 383.797,442.553C384.176,442.051 387.045,438.503 387.443,437.886C387.842,437.27 390.25,434.437 390.72,433.752C391.189,433.068 392.164,431.995 392.633,431.418C393.103,430.84 396.199,426.869 396.612,426.374C397.06,425.836 398.391,424.1 398.723,423.688C399.055,423.275 399.747,421.752 400.026,421.353C402.534,417.769 405.085,414.507 406.735,414.814C407.331,414.925 411.152,414.926 412.002,415.296C412.467,415.498 414.874,416.775 415.177,417.002C415.479,417.228 417.489,419.332 417.618,419.558C417.747,419.783 419.405,421.582 419.645,421.836C419.885,422.091 421.438,424 421.65,424.268C421.862,424.536 422.575,425.378 422.693,425.579C422.81,425.78 424.886,428.301 425.05,428.496C425.214,428.691 426.999,431.052 427.179,431.299C427.359,431.545 428.423,432.906 428.585,433.112C428.747,433.319 430.434,435.515 430.434,435.515C430.434,435.515 430.919,436.149 431.02,436.317C431.12,436.486 431.532,437.604 431.532,437.604L432.205,439.281L434.32,444.745L428.29,442.805L423.4,441.002C423.4,441.002 420.465,439.67 420.295,439.546C419.887,439.25 417.536,437.543 417.389,437.37C417.111,437.045 413.615,434.285 413.652,434.088C413.688,433.891 411.458,431.819 411.336,431.721C411.21,431.62 407.968,428.284 407.841,428.086C407.714,427.887 407.015,431.424 406.677,432.171C406.338,432.918 405.549,434.958 405.549,434.958C405.549,434.958 403.586,438.683 403.15,439.278C402.769,439.797 400.04,442.817 400.04,442.817C400.04,442.817 396.621,445.639 396.388,445.868C396.155,446.096 392.491,449.52 392.209,449.752C391.226,450.556 385.423,455.429 385.423,455.429C385.423,455.429 386.174,457.989 386.154,458.608C386.135,459.228 386.642,460.573 386.642,460.573Z" style="fill:rgb(160,97,106);"/>
                        </g>
                        <g id="leg-right1" serif:id="leg right" transform="matrix(1.9913,0.263357,-0.263357,1.9913,-422.256,-499.713)">
                            <path d="M386.642,460.573C386.713,460.881 387.159,461.949 386.819,462.861C386.503,463.707 385.993,463.894 384.96,463.903C384.569,463.906 381.033,463.375 380.235,463.139C379.436,462.902 375.565,462.205 375.565,462.205C375.565,462.205 373.709,462.687 372.831,462.861C371.952,463.036 369.603,463.351 369.422,463.346C369.24,463.34 364.423,463.43 364.201,463.433C363.468,463.443 361.458,462.937 361.011,462.575C360.604,462.245 360.56,461.976 360.659,461.719C360.847,461.235 361.093,460.997 361.188,460.985C361.284,460.974 361.973,461.223 362.474,461.172C362.974,461.121 365.94,460.357 366.619,459.958C367.297,459.558 369.085,458.472 369.368,458.27C369.747,458 371.451,456.653 371.775,456.389C371.955,456.243 373.536,454.927 373.977,454.487C374.419,454.047 375.491,453.074 376.005,452.367C376.428,451.787 377.401,450.754 377.89,450.02C378.378,449.286 381.326,445.768 381.801,445.097C382.277,444.427 383.418,443.056 383.797,442.553C384.176,442.051 387.045,438.503 387.443,437.886C387.842,437.27 390.25,434.437 390.72,433.752C391.189,433.068 392.164,431.995 392.633,431.418C393.103,430.84 396.199,426.869 396.612,426.374C397.06,425.836 398.391,424.1 398.723,423.688C399.055,423.275 399.747,421.752 400.026,421.353C402.534,417.769 405.085,414.507 406.735,414.814C407.331,414.925 411.152,414.926 412.002,415.296C412.467,415.498 414.874,416.775 415.177,417.002C415.479,417.228 417.489,419.332 417.618,419.558C417.747,419.783 419.405,421.582 419.645,421.836C419.885,422.091 421.438,424 421.65,424.268C421.862,424.536 422.575,425.378 422.693,425.579C422.81,425.78 424.886,428.301 425.05,428.496C425.214,428.691 426.999,431.052 427.179,431.299C427.359,431.545 428.423,432.906 428.585,433.112C428.747,433.319 430.434,435.515 430.434,435.515C430.434,435.515 430.919,436.149 431.02,436.317C431.12,436.486 431.532,437.604 431.532,437.604L432.205,439.281L434.32,444.745L428.29,442.805L423.4,441.002C423.4,441.002 420.465,439.67 420.295,439.546C419.887,439.25 417.536,437.543 417.389,437.37C417.111,437.045 413.615,434.285 413.652,434.088C413.688,433.891 411.458,431.819 411.336,431.721C411.21,431.62 407.968,428.284 407.841,428.086C407.714,427.887 407.015,431.424 406.677,432.171C406.338,432.918 405.549,434.958 405.549,434.958C405.549,434.958 403.586,438.683 403.15,439.278C402.769,439.797 400.04,442.817 400.04,442.817C400.04,442.817 396.621,445.639 396.388,445.868C396.155,446.096 392.491,449.52 392.209,449.752C391.226,450.556 385.423,455.429 385.423,455.429C385.423,455.429 386.174,457.989 386.154,458.608C386.135,459.228 386.642,460.573 386.642,460.573Z" style="fill-opacity:0.1;"/>
                        </g>
                    </g>
                    <g id="left-leg" serif:id="left leg" transform="matrix(1.63789,0,0,2.11013,-810.379,-425.895)">
                        <path d="M736.392,388.812L738.603,411.59C738.603,411.59 738.844,411.67 738.603,411.59C737,411.057 730.578,410.138 729.809,409.815C729.346,409.621 726.593,408.248 724.778,407.258C723.665,406.65 722.791,405.764 722.057,405.307C721.569,405.003 715.668,399.846 715.135,399.675C714.603,399.503 710.12,395.735 709.859,395.662C709.599,395.589 704.454,392.411 704.454,392.411C704.454,392.411 703.501,394.228 701.568,395.59C699.817,396.824 697.543,398.405 695.804,399.39C694.065,400.375 688.044,402.798 688.044,402.798C688.044,402.798 681.654,404.949 681.013,405.179C680.479,405.37 678.487,406.214 675.078,407.16C671.668,408.106 671.299,408.111 671.299,408.111C671.299,408.111 669.01,408.603 668.494,410.545C667.979,412.488 667.431,413.799 667.237,414.322C667.032,414.875 666.463,416.022 665.67,416.095C664.876,416.167 660.496,415.257 659.773,414.659C659.049,414.06 656.475,412.992 655.786,412.674C655.037,412.327 651.451,411.782 650.687,411.678C648.691,411.404 646.492,411.267 645.899,411.056C644.651,410.611 642.487,409.381 642.487,409.381C642.487,409.381 641.524,408.771 641.774,408.411C642.354,407.576 644.957,406.923 644.957,406.923L651.016,405.252L657.419,403.462C657.419,403.462 664.52,402.009 664.762,401.751C665.003,401.493 671.494,398.91 672.73,398.323C674.166,397.641 682.829,391.429 682.829,391.429L690.25,385.929L697.246,380.711C697.246,380.711 700.869,377.536 702.219,377.371C702.854,377.294 703.357,377.235 703.869,377.193C704.836,377.113 705.59,377.023 706.9,377.371C708.98,377.925 711.138,378.839 711.546,378.96C712.072,379.115 716.309,380.823 716.297,380.823C716.285,380.823 721.375,383.056 721.375,383.056L725.374,384.722L730.369,386.748L736.392,388.812Z" style="fill:rgb(160,97,106);"/>
                    </g>
                </g>
                <g id="shoes" transform="matrix(0.887306,0,0,0.929398,38.0837,32.0601)">
                    <g id="shoe-left" serif:id="shoe left" transform="matrix(-0.251522,-0.134121,-0.105145,0.324531,524.842,507.016)">
                        <g id="shoe">
                            <g transform="matrix(1,0,0,1,595.086,-512.578)">
                                <path d="M322.233,667.387C317.379,665.862 307.758,686.148 309.1,691.419C310.356,696.348 308.244,713.13 308.571,717.807C308.65,718.946 306.103,732.991 307.721,739.676C308.838,744.288 417.026,743.987 417.026,743.987C417.026,743.987 492.837,741.31 500.034,739.676C504.804,738.593 525.638,739.878 528.124,730.053C529.662,723.975 528.413,714.979 519.331,710.67C512.063,707.221 510.305,707.14 501.759,707.637C499.626,707.761 495.203,707.501 491.677,707.112C488.626,706.776 484.114,705.427 478.738,703.427C453.006,693.853 407.472,669.344 407.472,669.344C407.472,669.344 404.244,666.32 395.523,670.15C386.802,673.981 381.084,679.113 381.084,679.113C381.084,679.113 374.312,681.633 364.868,686.276C354.965,691.145 348.775,691.908 338.19,690.305C332.542,689.449 328.585,684.02 328.538,678.378C328.482,671.721 323.549,667.8 322.233,667.387Z" style="fill:rgb(216,205,205);stroke:rgb(47,46,65);stroke-width:4.11px;"/>
                            </g>
                            <g transform="matrix(1,0,0,1,595.086,-512.578)">
                                <path d="M488.835,706.801C488.835,706.801 495.77,722.948 493.549,725.124C491.329,727.299 476.783,728.14 473.952,728.376C465.204,729.108 453.153,728.905 446.726,728.937C442.833,728.957 436.641,728.744 430.542,728.476C423.34,728.159 416.269,727.767 413.273,727.591C409.159,727.349 387.628,727.129 383.001,726.551C379.319,726.091 345.978,725.153 343.042,724.797C339.163,724.327 310.11,720.791 309.1,717.697" style="fill:rgb(216,205,205);stroke:rgb(47,46,65);stroke-width:4.11px;"/>
                            </g>
                            <g transform="matrix(1,0,0,1,595.086,-512.578)">
                                <path d="M383.001,678.378C383.001,678.378 406.972,687.911 413.352,690.305C423.045,693.941 429.147,698.602 441.145,702.406C453.144,706.21 464.846,710.642 470.881,711.328C476.956,712.019 481.501,715.067 491.374,713.618" style="fill:rgb(216,205,205);stroke:rgb(47,46,65);stroke-width:4.11px;"/>
                            </g>
                            <g transform="matrix(1,0,0,1,595.086,-512.578)">
                                <path d="M492.302,725.929C492.302,725.929 512.286,723.943 525.812,717.404" style="fill:rgb(216,205,205);stroke:rgb(47,46,65);stroke-width:4.11px;"/>
                            </g>
                            <g id="stripes">
                                <g transform="matrix(1,0,0,1,595.086,-512.578)">
                                    <path d="M406.105,691.152C406.105,691.152 381.757,718.891 379.266,722.585L391.672,723.562L415.861,694.973L406.105,691.152Z" style="fill:rgb(255,101,132);"/>
                                </g>
                                <g transform="matrix(1,0,0,1,595.086,-512.578)">
                                    <path d="M425.015,699.703L408.208,723.802L416.601,724.034L433.292,703.524L425.015,699.703Z" style="fill:rgb(255,101,132);"/>
                                </g>
                                <g transform="matrix(1,0,0,1,595.086,-512.578)">
                                    <path d="M444.932,707.515L432.775,724.828L444.772,725.261L454.031,710.541C452.339,709.971 450.697,709.324 448.969,708.786C447.647,708.374 446.375,707.909 444.932,707.515Z" style="fill:rgb(255,101,132);"/>
                                </g>
                            </g>
                            <g transform="matrix(1,0,0,1,595.086,-512.578)">
                                <path d="M385.032,675.868C385.032,675.868 382.744,673.49 381.216,667.305C380.074,662.685 379.301,661.988 383.001,660.429C384.562,659.771 387.749,657.137 390.436,657.703C393.677,658.386 396.521,660.266 397.628,660.828C401.866,662.979 407.376,669.19 407.376,669.19" style="fill:rgb(216,205,205);stroke:rgb(47,46,65);stroke-width:4.11px;"/>
                            </g>
                            <g transform="matrix(-1,0,0,1,1209.9,-213.07)">
                                <path d="M212.081,367.755C212.081,367.755 211.279,367.269 219.289,370.642C227.299,374.014 229.384,376.081 229.384,376.081" style="fill:rgb(216,205,205);stroke:rgb(47,46,65);stroke-width:5.32px;"/>
                            </g>
                        </g>
                        <g id="laces">
                            <g transform="matrix(0.998564,0.0535797,-0.0535797,0.998564,622.15,-539.259)">
                                <path d="M457.886,698.283C457.886,698.283 457.306,699.665 461.011,690.561" style="fill:rgb(216,205,205);stroke:rgb(47,46,65);stroke-width:2.74px;"/>
                            </g>
                            <g transform="matrix(0.998564,0.0535797,-0.0535797,0.998564,630.035,-535.402)">
                                <path d="M458.072,697.761C458.072,697.761 457.306,699.665 461.011,690.561" style="fill:rgb(216,205,205);stroke:rgb(47,46,65);stroke-width:2.74px;"/>
                            </g>
                            <g transform="matrix(0.998564,0.0535797,-0.0535797,0.998564,638.387,-531.06)">
                                <path d="M458.325,696.978C458.325,696.978 458.175,697.12 461.011,690.561" style="fill:rgb(216,205,205);stroke:rgb(47,46,65);stroke-width:2.74px;"/>
                            </g>
                            <g transform="matrix(0.998564,0.0535797,-0.0535797,0.998564,612.508,-544.067)">
                                <path d="M457.132,700.399C457.132,700.399 457.306,699.665 461.011,690.561" style="fill:rgb(216,205,205);stroke:rgb(47,46,65);stroke-width:2.74px;"/>
                            </g>
                            <g transform="matrix(0.998564,0.0535797,-0.0535797,0.998564,602.86,-548.875)">
                                <path d="M457.132,700.399C457.132,700.399 457.306,699.665 461.011,690.561" style="fill:rgb(216,205,205);stroke:rgb(47,46,65);stroke-width:2.74px;"/>
                            </g>
                            <g transform="matrix(0.998564,0.0535797,-0.0535797,0.998564,594.07,-553.296)">
                                <path d="M457.132,700.399C457.132,700.399 457.306,699.665 461.011,690.561" style="fill:rgb(216,205,205);stroke:rgb(47,46,65);stroke-width:2.74px;"/>
                            </g>
                            <g transform="matrix(0.998564,0.0535797,-0.0535797,0.998564,585.586,-557.57)">
                                <path d="M457.132,700.399C457.132,700.399 457.306,699.665 461.011,690.561" style="fill:rgb(216,205,205);stroke:rgb(47,46,65);stroke-width:2.74px;"/>
                            </g>
                        </g>
                    </g>
                    <g id="shoe-right" serif:id="shoe right" transform="matrix(-0.266272,0.0749888,0.0583478,0.343083,563.737,347.992)">
                        <g id="shoe1" serif:id="shoe">
                            <g transform="matrix(1,0,0,1,595.086,-512.578)">
                                <path d="M322.233,667.387C317.379,665.862 307.758,686.148 309.1,691.419C310.356,696.348 308.244,713.13 308.571,717.807C308.65,718.946 306.103,732.991 307.721,739.676C308.838,744.288 417.026,743.987 417.026,743.987C417.026,743.987 492.837,741.31 500.034,739.676C504.804,738.593 525.638,739.878 528.124,730.053C529.662,723.975 528.413,714.979 519.331,710.67C512.063,707.221 510.305,707.14 501.759,707.637C499.626,707.761 495.203,707.501 491.677,707.112C488.549,706.767 483.795,705.002 478.331,703.275C451.998,694.951 407.472,669.344 407.472,669.344C407.472,669.344 404.244,666.32 395.523,670.15C386.802,673.981 381.084,679.113 381.084,679.113C381.084,679.113 374.312,681.633 364.868,686.276C354.965,691.145 348.775,691.908 338.19,690.305C332.542,689.449 328.585,684.02 328.538,678.378C328.482,671.721 323.549,667.8 322.233,667.387Z" style="fill:rgb(216,205,205);stroke:rgb(47,46,65);stroke-width:4.01px;"/>
                            </g>
                            <g transform="matrix(1,0,0,1,595.086,-512.578)">
                                <path d="M488.835,706.801C488.835,706.801 495.77,722.948 493.549,725.124C491.329,727.299 476.783,728.14 473.952,728.376C465.204,729.108 453.153,728.905 446.726,728.937C442.833,728.957 436.641,728.744 430.542,728.476C423.34,728.159 416.269,727.767 413.273,727.591C409.159,727.349 387.628,727.129 383.001,726.551C379.319,726.091 345.978,725.153 343.042,724.797C339.163,724.327 310.11,720.791 309.1,717.697" style="fill:rgb(216,205,205);stroke:rgb(47,46,65);stroke-width:4.01px;"/>
                            </g>
                            <g transform="matrix(1,0,0,1,595.086,-512.578)">
                                <path d="M383.001,678.378C383.001,678.378 406.972,687.911 413.352,690.305C423.045,693.941 429.147,698.602 441.145,702.406C453.144,706.21 464.846,710.642 470.881,711.328C476.956,712.019 481.501,715.067 491.374,713.618" style="fill:rgb(216,205,205);stroke:rgb(47,46,65);stroke-width:4.01px;"/>
                            </g>
                            <g transform="matrix(1,0,0,1,595.086,-512.578)">
                                <path d="M492.302,725.929C492.302,725.929 512.286,723.943 525.812,717.404" style="fill:rgb(216,205,205);stroke:rgb(47,46,65);stroke-width:4.01px;"/>
                            </g>
                            <g id="stripes1" serif:id="stripes" transform="matrix(0.954978,0.0261823,-0.0281405,0.944115,49.3492,-14.4207)">
                                <g transform="matrix(1,0,0,1,595.086,-512.578)">
                                    <path d="M407.053,689.689C407.053,689.689 379.974,723.714 380.108,723.302L386.039,723.572L391.932,723.702L416.91,693.24L407.053,689.689Z" style="fill:rgb(255,101,132);"/>
                                </g>
                                <g transform="matrix(1,0,0,1,595.086,-512.578)">
                                    <path d="M426.441,697.58L409.255,723.58L417.661,723.755L435.018,701.136L426.441,697.58Z" style="fill:rgb(255,101,132);"/>
                                </g>
                                <g transform="matrix(1,0,0,1,595.086,-512.578)">
                                    <path d="M446.264,704.936L433.684,724.309L446.38,724.183L454.958,707.57L446.264,704.936Z" style="fill:rgb(255,101,132);"/>
                                </g>
                            </g>
                            <g transform="matrix(1,0,0,1,595.086,-512.578)">
                                <path d="M385.032,675.868C385.032,675.868 382.744,673.49 381.216,667.305C380.074,662.685 379.301,661.988 383.001,660.429C384.562,659.771 387.749,657.137 390.436,657.703C393.677,658.386 396.521,660.266 397.628,660.828C401.866,662.979 407.376,669.19 407.376,669.19" style="fill:rgb(216,205,205);stroke:rgb(47,46,65);stroke-width:4.01px;"/>
                            </g>
                            <g transform="matrix(-1,0,0,1,1209.9,-213.07)">
                                <path d="M208.066,369.304C208.066,369.304 211.279,367.269 219.289,370.642C227.299,374.014 229.384,376.081 229.384,376.081" style="fill:rgb(216,205,205);stroke:rgb(47,46,65);stroke-width:5.45px;"/>
                            </g>
                        </g>
                        <g id="laces1" serif:id="laces">
                            <g transform="matrix(0.998564,0.0535797,-0.0535797,0.998564,622.15,-539.259)">
                                <path d="M457.735,697.119C457.735,697.119 457.306,699.665 461.011,690.561" style="fill:rgb(216,205,205);stroke:rgb(47,46,65);stroke-width:2.67px;"/>
                            </g>
                            <g transform="matrix(0.998564,0.0535797,-0.0535797,0.998564,630.035,-535.402)">
                                <path d="M458.271,697.566C458.271,697.566 457.306,699.665 461.011,690.561" style="fill:rgb(216,205,205);stroke:rgb(47,46,65);stroke-width:2.67px;"/>
                            </g>
                            <g transform="matrix(0.998564,0.0535797,-0.0535797,0.998564,638.387,-531.06)">
                                <path d="M458.24,697.499C458.24,697.499 458.038,697.755 459.265,694.88C459.762,693.715 460.31,692.283 461.011,690.561" style="fill:rgb(216,205,205);stroke:rgb(47,46,65);stroke-width:2.67px;"/>
                            </g>
                            <g transform="matrix(0.998564,0.0535797,-0.0535797,0.998564,612.508,-544.067)">
                                <path d="M457.132,700.399C457.132,700.399 457.306,699.665 461.011,690.561" style="fill:rgb(216,205,205);stroke:rgb(47,46,65);stroke-width:2.67px;"/>
                            </g>
                            <g transform="matrix(0.998564,0.0535797,-0.0535797,0.998564,602.86,-548.875)">
                                <path d="M457.132,700.399C457.132,700.399 457.306,699.665 461.011,690.561" style="fill:rgb(216,205,205);stroke:rgb(47,46,65);stroke-width:2.67px;"/>
                            </g>
                            <g transform="matrix(0.998564,0.0535797,-0.0535797,0.998564,594.07,-553.296)">
                                <path d="M457.132,700.399C457.132,700.399 457.306,699.665 461.011,690.561" style="fill:rgb(216,205,205);stroke:rgb(47,46,65);stroke-width:2.67px;"/>
                            </g>
                            <g transform="matrix(0.998564,0.0535797,-0.0535797,0.998564,585.586,-557.57)">
                                <path d="M457.132,700.399C457.132,700.399 457.306,699.665 461.011,690.561" style="fill:rgb(216,205,205);stroke:rgb(47,46,65);stroke-width:2.67px;"/>
                            </g>
                        </g>
                    </g>
                </g>
                <g id="arm-right" serif:id="arm right">
                    <g transform="matrix(0.723094,0.3722,-0.300319,0.968385,194.116,-16.3646)">
                        <path d="M351.471,187.68C349.541,187.576 333.647,191.078 334.485,194.89C334.739,196.044 339.779,199.596 344.651,201.866C346.797,202.866 356.345,203.86 360.434,204.497C363.066,204.907 394.408,202.37 394.408,202.37C394.408,202.37 400.08,185.78 391.336,184.384C382.742,183.011 382.16,183.669 370.182,185.53C364.475,186.417 352.692,187.745 351.471,187.68Z" style="fill:rgb(160,97,106);"/>
                    </g>
                    <g transform="matrix(-0.276819,-2.16782,1.48277,-0.314265,6.63038,1695.37)">
                        <path d="M593.169,361.082C595.801,363.942 597.779,366.137 598.636,367.295C599.575,368.561 602.737,373.965 602.737,373.965L606.097,379.255L610.722,384.796C610.722,384.796 611.454,387.915 611.501,389.622C611.559,391.702 609.573,393.206 607.189,393.24C606.175,393.254 604.918,392.687 605.011,391.186C605.126,389.308 605.85,383.587 605.85,383.587C605.321,383.617 604.272,382.906 603.056,381.974C601.96,381.135 600.707,380.111 599.956,379.361C596.575,375.98 594.898,374.918 591.397,370.624" style="fill:rgb(160,97,106);"/>
                    </g>
                </g>
                <g id="skirt" transform="matrix(0.776205,0,0,1,15.16,1.42109e-14)">
                    <g transform="matrix(2.62913,0,0,2.62913,-1635.21,-160.66)">
                        <path d="M831.878,171.032C832.549,170.351 835.454,172.36 835.454,172.36L839.44,177.135C839.44,177.135 842.082,181.528 842.465,185.485C842.629,187.175 843.145,193.959 842.897,195.379C842.65,196.799 841.916,203.795 841.668,204.541C841.419,205.288 841.212,211.244 841.093,212.482C840.975,213.72 840.681,216.582 840.497,217.286C840.062,218.944 839.119,224.129 838.625,225.105C837.762,226.808 835.326,229.111 833.497,229.457L832.542,223.505L828.589,220.573L822.054,217.556L820.112,215.866L819.249,214.315L814.997,207.459L821.712,196.567C817.436,195.811 815.46,193.208 814.712,190.793C813.373,186.471 815.157,184.899 816.112,183.065C818.441,178.597 820.293,175.349 820.293,175.349C820.293,175.349 821,174.975 822.43,174.769C823.859,174.563 825.416,174.611 826.04,174.087C826.665,173.563 831.401,171.516 831.878,171.032Z" style="fill:rgb(47,46,65);"/>
                    </g>
                    <g transform="matrix(1,0,0,1,67.7405,40.5705)">
                        <path d="M442.099,341.923C447.213,340.533 495.617,393.955 495.617,393.955C495.617,393.955 496.91,403.255 479.447,403.427C461.984,403.598 434.32,403.427 434.32,403.427L411.523,403.525L388.718,403.525C388.718,403.525 377.404,390.963 381.847,384.895C390.853,372.594 380.333,339.533 389.548,337.876C393.506,337.164 401.05,330.837 404.543,329.306C409.185,327.271 410.103,327.154 416.685,331.44C421.473,334.557 438.596,342.876 442.099,341.923Z" style="fill:rgb(47,46,65);"/>
                    </g>
                </g>
                <g id="arm-left" serif:id="arm left" transform="matrix(1.61836,0,0,1.84284,-471.788,-266.537)">
                    <path d="M572.404,319.266C572.404,319.266 576.053,320.612 576.642,322.778C577.23,324.945 582.054,335.504 582.054,335.504L585.865,347.568C585.865,347.568 587.066,350.365 588.224,353.018C589.106,355.041 590.481,357.92 593.171,361.068C595.86,364.216 597.958,368.184 597.958,368.184L602.144,374.848L606.097,379.255L613.18,380.048C613.18,380.048 618.877,380.615 620.299,381.174C621.722,381.733 622.235,382.447 622.277,383.657C622.4,387.189 613.338,385.728 610.826,385.619C608.514,385.519 606.493,383.973 606.493,383.973C605.291,383.512 603.728,382.391 602.362,381.384C598.513,378.546 594.969,374.429 591.468,370.135L581.886,358.643C581.886,358.643 577.901,353.35 578.14,351.792C578.391,350.156 575.836,345.666 575.836,345.666C575.836,345.666 570.937,337.42 569.703,336.798C568.577,336.229 565.779,335.081 564.929,334.474C563.499,333.453 561.308,330.769 562.223,329.068C562.223,329.068 565.114,322.352 566.198,321.58C567.707,320.506 571.686,318.599 572.404,319.266" style="fill:rgb(160,97,106);"/>
                </g>
                <g id="head" transform="matrix(0.776205,0,0,1,134.071,-33.4825)">
                    <circle cx="373.817" cy="288.96" r="23.39" style="fill:rgb(160,97,106);"/>
                </g>
                <g id="hair" transform="matrix(0.776205,0,0,1,77.4776,-84.6733)">
                    <g transform="matrix(0.969819,0,0,0.550458,72.3175,175.409)">
                        <circle cx="386.315" cy="264.59" r="24.371" style="fill:rgb(47,46,65);"/>
                    </g>
                    <g transform="matrix(0.865656,0,0,0.881487,129.432,96.2426)">
                        <circle cx="386.315" cy="264.59" r="24.371" style="fill:rgb(47,46,65);"/>
                    </g>
                    <g transform="matrix(0.955315,0,0,0.972786,118.077,45.3652)">
                        <circle cx="386.315" cy="264.59" r="24.371" style="fill:rgb(47,46,65);"/>
                    </g>
                </g>
                <g id="headphone" transform="matrix(0.776205,0,0,1,77.4776,-84.6733)">
                    <g transform="matrix(0.786635,0,0,0.791444,151.044,99.5428)">
                        <path d="M391.757,270.18C391.757,268.463 390.354,267.068 388.625,267.068L382.363,267.068C380.635,267.068 379.232,268.463 379.232,270.18L379.232,297.857C379.232,299.574 380.635,300.969 382.363,300.969L388.625,300.969C390.354,300.969 391.757,299.574 391.757,297.857L391.757,270.18Z" style="fill:rgb(255,101,132);"/>
                    </g>
                    <g transform="matrix(0.786635,0,0,0.175754,151.044,260.053)">
                        <path d="M391.757,275.543C391.757,270.866 390.908,267.068 389.863,267.068L381.126,267.068C380.081,267.068 379.232,270.866 379.232,275.543L379.232,292.494C379.232,297.171 380.081,300.969 381.126,300.969L389.863,300.969C390.908,300.969 391.757,297.171 391.757,292.494L391.757,275.543Z" style="fill:rgb(234,75,107);"/>
                    </g>
                    <g transform="matrix(1.19232,0,0,1.19232,-47.7963,-85.8585)">
                        <circle cx="421.097" cy="361.273" r="8.745" style="fill:rgb(234,75,107);"/>
                    </g>
                    <g transform="matrix(0.620557,0,0,0.620557,192.973,120.705)">
                        <circle cx="421.097" cy="361.273" r="8.745" style="fill:rgb(47,46,65);"/>
                    </g>
                </g>
            </g>
        </g>
    </g>
</svg>
