<?xml version="1.0" encoding="UTF-8" standalone="no"?>
<!DOCTYPE svg PUBLIC "-//W3C//DTD SVG 1.1//EN" "http://www.w3.org/Graphics/SVG/1.1/DTD/svg11.dtd">
<svg width="100%" height="100%" viewBox="0 0 100 120" version="1.1" xmlns="http://www.w3.org/2000/svg" xmlns:xlink="http://www.w3.org/1999/xlink" xml:space="preserve" xmlns:serif="http://www.serif.com/" style="fill-rule:evenodd;clip-rule:evenodd;stroke-linejoin:round;stroke-miterlimit:2;">
    <g transform="matrix(1,0,0,1,-1.13916,-1.76449)">
        <g transform="matrix(1,0,0,1,-15.031,3.86395)">
            <g transform="matrix(0.691826,0,0,0.69183,-50.3104,-559.625)">
                <g>
                    <g transform="matrix(191.876,0,0,191.876,89.3787,969.349)">
                        <path d="M0.563,-0.028L0.563,-0.052L0.691,-0.052L0.692,-0.169L0.716,-0.169L0.716,-0.028L0.563,-0.028ZM0.739,-0.64L0.579,-0.64L0.579,-0.24L0.179,-0.64L0.179,0L0.739,0L0.739,-0.64ZM0.131,0.048L0.131,-0.048L0.035,-0.048L0.035,-0.852L0.435,-0.452L0.435,-0.784L0.691,-0.784L0.691,-0.688L0.787,-0.688L0.787,0.048L0.131,0.048Z" style="fill-opacity:0.87;fill-rule:nonzero;"/>
                    </g>
                </g>
            </g>
        </g>
    </g>
</svg>
