<?xml version="1.0" encoding="UTF-8" standalone="no"?>
<!DOCTYPE svg PUBLIC "-//W3C//DTD SVG 1.1//EN" "http://www.w3.org/Graphics/SVG/1.1/DTD/svg11.dtd">
<svg width="100%" height="100%" viewBox="0 0 499 127" version="1.1" xmlns="http://www.w3.org/2000/svg" xmlns:xlink="http://www.w3.org/1999/xlink" xml:space="preserve" xmlns:serif="http://www.serif.com/" style="fill-rule:evenodd;clip-rule:evenodd;stroke-linejoin:round;stroke-miterlimit:2;">
    <g transform="matrix(1,0,0,1,-0.00010536,-0.00142581)">
        <g transform="matrix(1,0,0,1,-42.2275,-2661.57)">
            <g id="Artboard3" transform="matrix(1.02606,0,0,0.208037,-3.59213,2103.03)">
                <rect x="44.656" y="2684.82" width="486.059" height="608.077" style="fill:none;"/>
                <g transform="matrix(0.674256,0,0,3.32551,-12.907,4.88683)">
                    <g>
                        <g transform="matrix(191.876,0,0,191.876,89.3787,969.349)">
                            <path d="M0.563,-0.028L0.563,-0.052L0.691,-0.052L0.692,-0.169L0.716,-0.169L0.716,-0.028L0.563,-0.028ZM0.739,-0.64L0.579,-0.64L0.579,-0.24L0.179,-0.64L0.179,0L0.739,0L0.739,-0.64ZM0.131,0.048L0.131,-0.048L0.035,-0.048L0.035,-0.852L0.435,-0.452L0.435,-0.784L0.691,-0.784L0.691,-0.688L0.787,-0.688L0.787,0.048L0.131,0.048Z" style="fill:white;fill-opacity:0.87;fill-rule:nonzero;"/>
                        </g>
                        <g transform="matrix(191.876,0,0,191.876,247.293,969.349)">
                            <path d="M0.498,-0.314C0.498,-0.303 0.494,-0.293 0.487,-0.286C0.479,-0.278 0.469,-0.274 0.458,-0.274C0.447,-0.274 0.437,-0.278 0.43,-0.286C0.422,-0.293 0.418,-0.303 0.418,-0.314C0.418,-0.325 0.422,-0.335 0.43,-0.343C0.437,-0.35 0.447,-0.354 0.458,-0.354C0.469,-0.354 0.478,-0.35 0.486,-0.342C0.494,-0.334 0.498,-0.325 0.498,-0.314ZM0.75,-0.32C0.75,-0.241 0.721,-0.172 0.663,-0.113C0.606,-0.055 0.537,-0.026 0.458,-0.026L0.458,-0.05C0.528,-0.05 0.59,-0.077 0.644,-0.132C0.699,-0.187 0.726,-0.249 0.726,-0.32L0.75,-0.32ZM0.778,-0.32C0.778,-0.41 0.747,-0.486 0.685,-0.547C0.624,-0.609 0.548,-0.64 0.458,-0.64C0.37,-0.64 0.295,-0.609 0.232,-0.546C0.169,-0.483 0.138,-0.408 0.138,-0.32C0.138,-0.231 0.169,-0.155 0.231,-0.093C0.293,-0.031 0.369,0 0.458,0C0.547,0 0.622,-0.031 0.684,-0.093C0.747,-0.156 0.778,-0.231 0.778,-0.32ZM0.826,-0.32C0.826,-0.218 0.79,-0.131 0.718,-0.059C0.647,0.012 0.56,0.048 0.458,0.048C0.396,0.048 0.339,0.034 0.286,0.006C0.233,-0.022 0.189,-0.061 0.154,-0.112C0.104,-0.147 0.065,-0.191 0.037,-0.244C0.008,-0.297 -0.006,-0.354 -0.006,-0.416C-0.006,-0.517 0.03,-0.604 0.102,-0.676C0.174,-0.748 0.261,-0.784 0.362,-0.784C0.424,-0.784 0.482,-0.77 0.535,-0.742C0.588,-0.714 0.631,-0.675 0.666,-0.625C0.717,-0.59 0.756,-0.546 0.784,-0.493C0.812,-0.44 0.826,-0.382 0.826,-0.32Z" style="fill:white;fill-opacity:0.87;fill-rule:nonzero;"/>
                        </g>
                        <g transform="matrix(191.876,0,0,191.876,404.631,969.349)">
                            <path d="M0.243,-0.028L0.243,-0.052L0.371,-0.052L0.371,-0.169L0.395,-0.169L0.395,-0.028L0.243,-0.028ZM0.422,-0.64L0.182,-0.64L0.182,0L0.422,0L0.422,-0.64ZM0.134,0.048L0.134,-0.048L0.038,-0.048L0.038,-0.784L0.374,-0.784L0.374,-0.688L0.47,-0.688L0.47,0.048L0.134,0.048Z" style="fill:white;fill-opacity:0.87;fill-rule:nonzero;"/>
                        </g>
                        <g transform="matrix(191.876,0,0,191.876,502.104,969.349)">
                            <path d="M0.485,-0.028L0.485,-0.052L0.613,-0.052L0.613,-0.12L0.637,-0.12L0.637,-0.028L0.485,-0.028ZM0.472,-0.152L0.45,-0.161L0.626,-0.606L0.648,-0.597L0.472,-0.152ZM0.19,-0.64L0.19,-0.48L0.35,-0.48L0.19,0L0.67,0L0.67,-0.16L0.51,-0.16L0.701,-0.64L0.19,-0.64ZM0.619,-0.304L0.622,-0.304L0.622,-0.208L0.718,-0.208L0.718,0.048L0.123,0.048L0.155,-0.048L0.027,-0.048L0.155,-0.432L0.142,-0.432L0.142,-0.528L0.046,-0.528L0.046,-0.784L0.675,-0.784L0.637,-0.688L0.771,-0.688L0.619,-0.304Z" style="fill:white;fill-opacity:0.87;fill-rule:nonzero;"/>
                        </g>
                        <g transform="matrix(191.876,0,0,191.876,655.413,969.349)">
                            <path d="M0.482,-0.028L0.482,-0.052L0.61,-0.052L0.61,-0.169L0.634,-0.169L0.634,-0.028L0.482,-0.028ZM0.482,-0.426L0.482,-0.45L0.61,-0.45L0.61,-0.567L0.634,-0.567L0.634,-0.426L0.482,-0.426ZM0.661,-0.24L0.45,-0.24L0.45,-0.27L0.55,-0.27L0.55,-0.37L0.45,-0.37L0.45,-0.4L0.661,-0.4L0.661,-0.64L0.181,-0.64L0.181,0L0.661,0L0.661,-0.24ZM0.133,0.048L0.133,-0.048L0.037,-0.048L0.037,-0.784L0.613,-0.784L0.613,-0.688L0.709,-0.688L0.709,-0.352L0.613,-0.352L0.613,-0.288L0.709,-0.288L0.709,0.048L0.133,0.048Z" style="fill:white;fill-opacity:0.87;fill-rule:nonzero;"/>
                        </g>
                    </g>
                </g>
            </g>
        </g>
    </g>
</svg>
