<?xml version="1.0" encoding="UTF-8" standalone="no"?>
<!DOCTYPE svg PUBLIC "-//W3C//DTD SVG 1.1//EN" "http://www.w3.org/Graphics/SVG/1.1/DTD/svg11.dtd">
<svg width="100%" height="100%" viewBox="0 0 319 337" version="1.1" xmlns="http://www.w3.org/2000/svg" xmlns:xlink="http://www.w3.org/1999/xlink" xml:space="preserve" xmlns:serif="http://www.serif.com/" style="fill-rule:evenodd;clip-rule:evenodd;stroke-linejoin:round;stroke-miterlimit:2;">
    <g transform="matrix(1,0,0,1,-28.1979,-19.1958)">
        <g transform="matrix(4.16667,0,0,4.16667,14,14.0918)">
            <g transform="matrix(1,0,0,1,3.4075,1.01098)">
                <path d="M40.464,5.221C41.654,4.031 43.236,3.377 44.919,3.377C46.6,3.377 48.181,4.031 49.37,5.222L53.323,9.173L57.273,5.222C59.652,2.843 63.8,2.841 66.182,5.221C67.371,6.411 68.028,7.993 68.028,9.675C68.028,11.357 67.371,12.938 66.182,14.128L53.305,27.01L40.464,14.128C39.275,12.938 38.619,11.357 38.619,9.675C38.619,7.993 39.275,6.411 40.464,5.221ZM53.302,31.486L68.418,16.364C70.205,14.578 71.19,12.202 71.19,9.675C71.19,7.148 70.205,4.772 68.418,2.985C66.63,1.198 64.254,0.214 61.728,0.214C59.2,0.214 56.825,1.198 55.037,2.985L53.323,4.701L51.606,2.985C49.821,1.199 47.445,0.214 44.919,0.214C42.391,0.214 40.015,1.198 38.228,2.985C36.442,4.772 35.457,7.148 35.457,9.675C35.457,12.202 36.442,14.578 38.228,16.364L53.302,31.486Z" style="fill-rule:nonzero;"/>
                <path d="M38.451,77.838C25.449,77.838 14.077,70.766 7.955,60.272C9.814,58.952 11.988,58.077 15.073,58.077C20.53,58.077 23.153,60.782 26.19,63.917C29.282,67.104 32.784,70.717 39.581,70.717C46.378,70.717 49.881,67.104 52.971,63.917C56.01,60.782 58.635,58.077 64.093,58.077C66.301,58.077 68.04,58.529 69.535,59.267C63.547,70.461 51.813,77.838 38.451,77.838ZM4.28,51.375C7.183,48.387 9.812,45.869 15.073,45.869C20.53,45.869 23.153,48.575 26.19,51.709C29.282,54.896 32.784,58.509 39.581,58.509C46.378,58.509 49.881,54.896 52.971,51.709C56.01,48.575 58.635,45.869 64.093,45.869C68.221,45.869 70.724,47.425 73.013,49.533C72.532,51.94 71.818,54.245 70.89,56.431C69.033,55.516 66.839,54.915 64.093,54.915C57.296,54.915 53.793,58.528 50.701,61.715C47.662,64.849 45.041,67.555 39.581,67.555C34.122,67.555 31.499,64.849 28.46,61.715C25.372,58.528 21.869,54.915 15.073,54.915C11.389,54.915 8.686,55.987 6.48,57.468C5.571,55.525 4.826,53.49 4.28,51.375ZM9.372,22.547L22.849,38.451L33.198,31.316L50.675,49.534C47.647,52.657 45.025,55.347 39.581,55.347C34.122,55.347 31.499,52.642 28.46,49.507C25.372,46.32 21.869,42.707 15.073,42.707C9.579,42.707 6.249,45.072 3.537,47.661C3.293,45.991 3.162,44.286 3.162,42.549C3.162,35.311 5.302,28.437 9.372,22.547ZM76.37,48.871L76.465,48.417C75.79,47.725 75.586,47.579 74.829,46.907C72.257,44.629 69.051,42.707 64.093,42.707C58.846,42.707 55.57,44.862 52.923,47.309L33.617,27.185L23.411,34.222L9.227,17.484L8.032,19.026C2.777,25.81 0,33.944 0,42.549C0,48.625 1.422,54.372 3.94,59.484C3.928,59.497 3.914,59.507 3.901,59.519L4.048,59.695C10.362,72.313 23.408,81 38.451,81C52.909,81 65.622,73.075 72.187,61.022C72.187,61.022 72.189,61.022 72.189,61.023L72.2,60.998C73.69,58.255 74.88,55.311 75.682,52.184C75.683,52.185 75.683,52.187 75.685,52.188L75.856,51.357C76.048,50.536 76.244,49.716 76.383,48.873L76.37,48.871Z" style="fill-rule:nonzero;"/>
            </g>
        </g>
    </g>
</svg>
