<?xml version="1.0" encoding="UTF-8" standalone="no"?>
<!DOCTYPE svg PUBLIC "-//W3C//DTD SVG 1.1//EN" "http://www.w3.org/Graphics/SVG/1.1/DTD/svg11.dtd">
<svg width="100%" height="100%" viewBox="0 0 333 51" version="1.1" xmlns="http://www.w3.org/2000/svg" xmlns:xlink="http://www.w3.org/1999/xlink" xml:space="preserve" xmlns:serif="http://www.serif.com/" style="fill-rule:evenodd;clip-rule:evenodd;stroke-linejoin:round;stroke-miterlimit:2;">
    <g transform="matrix(1,0,0,1,-183.122,-8.84235)">
        <g id="Artboard2" transform="matrix(0.410757,0,0,0.222012,333.52,-29.5298)">
            <rect x="-366.149" y="172.838" width="809.196" height="226.433" style="fill:none;"/>
            <clipPath id="_clip1">
                <rect x="-366.149" y="172.838" width="809.196" height="226.433"/>
            </clipPath>
            <g clip-path="url(#_clip1)">
                <g transform="matrix(5.47471,0,0,10.365,-372.515,-788.082)">
                    <g transform="matrix(26.6808,0,0,26.6808,35.1173,114.394)">
                        <path d="M0.367,0.005C0.315,0.005 0.268,-0.007 0.227,-0.031C0.185,-0.055 0.152,-0.088 0.128,-0.13C0.103,-0.171 0.091,-0.218 0.09,-0.27L0.09,-0.742C0.09,-0.754 0.093,-0.763 0.101,-0.771C0.108,-0.778 0.117,-0.781 0.129,-0.781C0.14,-0.781 0.15,-0.778 0.157,-0.771C0.164,-0.763 0.167,-0.754 0.167,-0.742L0.167,-0.448C0.189,-0.479 0.218,-0.505 0.255,-0.524C0.291,-0.543 0.331,-0.552 0.376,-0.552C0.427,-0.552 0.473,-0.54 0.514,-0.516C0.555,-0.491 0.587,-0.458 0.611,-0.416C0.634,-0.374 0.646,-0.327 0.646,-0.274C0.646,-0.221 0.634,-0.173 0.61,-0.131C0.585,-0.089 0.552,-0.056 0.51,-0.032C0.468,-0.007 0.42,0.005 0.367,0.005ZM0.367,-0.065C0.406,-0.065 0.44,-0.074 0.471,-0.093C0.502,-0.111 0.526,-0.136 0.544,-0.167C0.561,-0.198 0.57,-0.234 0.57,-0.274C0.57,-0.313 0.561,-0.349 0.544,-0.381C0.526,-0.412 0.502,-0.437 0.471,-0.455C0.44,-0.473 0.406,-0.482 0.367,-0.482C0.329,-0.482 0.295,-0.473 0.264,-0.455C0.233,-0.437 0.209,-0.412 0.192,-0.381C0.175,-0.349 0.166,-0.313 0.166,-0.274C0.166,-0.234 0.175,-0.198 0.192,-0.167C0.209,-0.136 0.233,-0.111 0.264,-0.093C0.295,-0.074 0.329,-0.065 0.367,-0.065Z" style="fill-rule:nonzero;"/>
                    </g>
                    <g transform="matrix(26.6808,0,0,26.6808,53.9806,114.394)">
                        <path d="M0.339,0.005C0.286,0.005 0.238,-0.007 0.196,-0.031C0.154,-0.055 0.121,-0.088 0.097,-0.13C0.073,-0.172 0.061,-0.22 0.061,-0.273C0.061,-0.327 0.073,-0.375 0.097,-0.417C0.121,-0.459 0.154,-0.492 0.196,-0.516C0.238,-0.54 0.286,-0.552 0.339,-0.552C0.392,-0.552 0.44,-0.54 0.482,-0.516C0.523,-0.492 0.556,-0.459 0.58,-0.417C0.604,-0.375 0.616,-0.327 0.617,-0.273C0.617,-0.22 0.605,-0.172 0.581,-0.13C0.556,-0.088 0.523,-0.055 0.482,-0.031C0.44,-0.007 0.392,0.005 0.339,0.005ZM0.339,-0.065C0.378,-0.065 0.412,-0.074 0.443,-0.092C0.474,-0.11 0.498,-0.135 0.515,-0.166C0.532,-0.197 0.541,-0.233 0.541,-0.273C0.541,-0.313 0.532,-0.349 0.515,-0.381C0.498,-0.412 0.474,-0.437 0.443,-0.455C0.412,-0.473 0.378,-0.482 0.339,-0.482C0.3,-0.482 0.266,-0.473 0.235,-0.455C0.204,-0.437 0.18,-0.412 0.163,-0.381C0.145,-0.349 0.136,-0.313 0.136,-0.273C0.136,-0.233 0.145,-0.197 0.163,-0.166C0.18,-0.135 0.204,-0.11 0.235,-0.092C0.266,-0.074 0.3,-0.065 0.339,-0.065Z" style="fill-rule:nonzero;"/>
                    </g>
                    <g transform="matrix(26.6808,0,0,26.6808,72.0435,114.394)">
                        <path d="M0.328,0.006C0.281,0.006 0.238,-0.004 0.201,-0.024C0.164,-0.043 0.134,-0.072 0.113,-0.11C0.091,-0.148 0.08,-0.194 0.08,-0.249L0.08,-0.509C0.08,-0.52 0.084,-0.529 0.091,-0.536C0.098,-0.543 0.107,-0.547 0.118,-0.547C0.129,-0.547 0.139,-0.543 0.146,-0.536C0.153,-0.529 0.157,-0.52 0.157,-0.509L0.157,-0.249C0.157,-0.208 0.165,-0.174 0.181,-0.147C0.196,-0.12 0.218,-0.1 0.245,-0.087C0.272,-0.074 0.302,-0.067 0.336,-0.067C0.369,-0.067 0.398,-0.073 0.425,-0.086C0.451,-0.099 0.472,-0.116 0.487,-0.138C0.502,-0.16 0.51,-0.185 0.51,-0.213L0.565,-0.213C0.563,-0.171 0.552,-0.133 0.531,-0.101C0.509,-0.068 0.481,-0.042 0.446,-0.023C0.411,-0.003 0.371,0.006 0.328,0.006ZM0.548,0C0.537,0 0.528,-0.004 0.521,-0.011C0.514,-0.018 0.51,-0.027 0.51,-0.039L0.51,-0.509C0.51,-0.52 0.514,-0.53 0.521,-0.537C0.528,-0.544 0.537,-0.547 0.548,-0.547C0.559,-0.547 0.569,-0.544 0.576,-0.537C0.583,-0.53 0.587,-0.52 0.587,-0.509L0.587,-0.039C0.587,-0.027 0.583,-0.018 0.576,-0.011C0.569,-0.004 0.559,0 0.548,0Z" style="fill-rule:nonzero;"/>
                    </g>
                    <g transform="matrix(26.6808,0,0,26.6808,90.1063,114.394)">
                        <path d="M0.559,0C0.548,0 0.538,-0.004 0.531,-0.011C0.524,-0.018 0.52,-0.027 0.52,-0.038L0.52,-0.298C0.52,-0.339 0.512,-0.373 0.497,-0.4C0.481,-0.427 0.46,-0.447 0.433,-0.46C0.405,-0.473 0.375,-0.48 0.341,-0.48C0.308,-0.48 0.279,-0.474 0.253,-0.461C0.226,-0.448 0.205,-0.431 0.19,-0.409C0.175,-0.387 0.167,-0.362 0.167,-0.334L0.112,-0.334C0.113,-0.376 0.125,-0.413 0.146,-0.447C0.167,-0.48 0.196,-0.505 0.231,-0.525C0.266,-0.544 0.306,-0.553 0.349,-0.553C0.396,-0.553 0.439,-0.543 0.476,-0.524C0.513,-0.504 0.543,-0.475 0.565,-0.437C0.586,-0.399 0.597,-0.353 0.597,-0.298L0.597,-0.038C0.597,-0.027 0.593,-0.018 0.586,-0.011C0.579,-0.004 0.57,0 0.559,0ZM0.129,0C0.117,0 0.108,-0.004 0.101,-0.011C0.093,-0.018 0.09,-0.027 0.09,-0.038L0.09,-0.508C0.09,-0.52 0.093,-0.53 0.101,-0.537C0.108,-0.544 0.117,-0.547 0.129,-0.547C0.14,-0.547 0.15,-0.544 0.157,-0.537C0.164,-0.53 0.167,-0.52 0.167,-0.508L0.167,-0.038C0.167,-0.027 0.164,-0.018 0.157,-0.011C0.15,-0.004 0.14,0 0.129,0Z" style="fill-rule:nonzero;"/>
                    </g>
                    <g transform="matrix(26.6808,0,0,26.6808,108.169,114.394)">
                        <path d="M0.334,0.005C0.281,0.005 0.235,-0.007 0.194,-0.032C0.153,-0.056 0.12,-0.089 0.097,-0.131C0.073,-0.173 0.061,-0.22 0.061,-0.273C0.061,-0.326 0.072,-0.374 0.095,-0.416C0.118,-0.458 0.149,-0.491 0.188,-0.516C0.227,-0.54 0.273,-0.552 0.324,-0.552C0.365,-0.552 0.402,-0.544 0.437,-0.528C0.471,-0.512 0.501,-0.488 0.527,-0.456C0.534,-0.448 0.537,-0.44 0.535,-0.431C0.533,-0.422 0.527,-0.414 0.518,-0.407C0.511,-0.402 0.503,-0.4 0.494,-0.402C0.485,-0.403 0.477,-0.408 0.47,-0.416C0.431,-0.46 0.383,-0.482 0.324,-0.482C0.287,-0.482 0.254,-0.473 0.226,-0.455C0.197,-0.437 0.175,-0.412 0.16,-0.381C0.144,-0.35 0.136,-0.314 0.136,-0.273C0.136,-0.233 0.144,-0.197 0.161,-0.166C0.178,-0.135 0.201,-0.11 0.231,-0.092C0.261,-0.074 0.295,-0.065 0.334,-0.065C0.36,-0.065 0.384,-0.069 0.406,-0.076C0.427,-0.083 0.446,-0.093 0.463,-0.108C0.471,-0.115 0.479,-0.118 0.488,-0.119C0.497,-0.12 0.505,-0.117 0.512,-0.111C0.52,-0.104 0.525,-0.095 0.526,-0.086C0.527,-0.077 0.523,-0.069 0.516,-0.062C0.467,-0.017 0.407,0.005 0.334,0.005Z" style="fill-rule:nonzero;"/>
                    </g>
                    <g transform="matrix(26.6808,0,0,26.6808,124.071,114.394)">
                        <path d="M0.338,0.005C0.284,0.005 0.236,-0.007 0.195,-0.031C0.153,-0.054 0.12,-0.087 0.097,-0.129C0.073,-0.171 0.061,-0.219 0.061,-0.273C0.061,-0.328 0.072,-0.376 0.095,-0.418C0.117,-0.459 0.148,-0.492 0.187,-0.516C0.226,-0.54 0.272,-0.552 0.323,-0.552C0.374,-0.552 0.418,-0.541 0.456,-0.518C0.493,-0.494 0.522,-0.463 0.543,-0.422C0.564,-0.381 0.574,-0.335 0.574,-0.283C0.574,-0.272 0.571,-0.264 0.564,-0.258C0.557,-0.251 0.549,-0.248 0.538,-0.248L0.113,-0.248L0.113,-0.312L0.546,-0.312L0.503,-0.281C0.504,-0.32 0.497,-0.354 0.482,-0.385C0.467,-0.416 0.447,-0.44 0.42,-0.457C0.393,-0.474 0.36,-0.483 0.323,-0.483C0.285,-0.483 0.252,-0.474 0.223,-0.456C0.194,-0.438 0.172,-0.413 0.157,-0.382C0.141,-0.35 0.133,-0.314 0.133,-0.273C0.133,-0.232 0.142,-0.196 0.16,-0.165C0.177,-0.134 0.201,-0.109 0.232,-0.091C0.263,-0.073 0.298,-0.064 0.338,-0.064C0.362,-0.064 0.386,-0.068 0.411,-0.077C0.435,-0.085 0.454,-0.095 0.469,-0.108C0.476,-0.114 0.485,-0.117 0.494,-0.118C0.503,-0.118 0.511,-0.115 0.518,-0.11C0.527,-0.102 0.531,-0.093 0.532,-0.084C0.532,-0.075 0.528,-0.067 0.52,-0.06C0.498,-0.041 0.47,-0.026 0.436,-0.014C0.402,-0.001 0.369,0.005 0.338,0.005Z" style="fill-rule:nonzero;"/>
                    </g>
                </g>
                <g id="equilizer" transform="matrix(0.756284,-1.38778e-16,-7.67604e-17,-1.05083,-68.9699,610.664)">
                    <g transform="matrix(2.38008,0,0,3.72932,-481.17,-186.562)">
                        <rect x="37.068" y="104.769" width="22.05" height="9.121"/>
                    </g>
                    <g transform="matrix(2.38008,0,0,3.72932,-481.17,-142.343)">
                        <rect x="37.068" y="104.769" width="22.05" height="9.121"/>
                    </g>
                    <g transform="matrix(2.38008,0,0,3.72932,-421.668,-186.562)">
                        <rect x="37.068" y="104.769" width="22.05" height="9.121"/>
                    </g>
                    <g transform="matrix(2.38008,0,0,3.72932,-421.668,-142.343)">
                        <rect x="37.068" y="104.769" width="22.05" height="9.121"/>
                    </g>
                    <g transform="matrix(2.38008,0,0,3.72932,-421.668,-98.1241)">
                        <rect x="37.068" y="104.769" width="22.05" height="9.121"/>
                    </g>
                    <g transform="matrix(2.38008,0,0,3.72932,-421.668,-53.8579)">
                        <rect x="37.068" y="104.769" width="22.05" height="9.121"/>
                    </g>
                    <g transform="matrix(2.38008,0,0,3.72932,-362.167,-186.562)">
                        <rect x="37.068" y="104.769" width="22.05" height="9.121"/>
                    </g>
                    <g transform="matrix(2.38008,0,0,3.72932,-362.167,-142.343)">
                        <rect x="37.068" y="104.769" width="22.05" height="9.121"/>
                    </g>
                    <g transform="matrix(2.38008,0,0,3.72932,-362.167,-98.1241)">
                        <rect x="37.068" y="104.769" width="22.05" height="9.121"/>
                    </g>
                    <g transform="matrix(2.38008,0,0,3.72932,-362.167,-53.8579)">
                        <rect x="37.068" y="104.769" width="22.05" height="9.121"/>
                    </g>
                    <g transform="matrix(2.38008,0,0,3.72932,-362.167,-10.8682)">
                        <rect x="37.068" y="104.769" width="22.05" height="9.121"/>
                    </g>
                    <g transform="matrix(2.38008,0,0,3.72932,-302.665,-186.562)">
                        <rect x="37.068" y="104.769" width="22.05" height="9.121"/>
                    </g>
                    <g transform="matrix(2.38008,0,0,3.72932,-302.665,-142.343)">
                        <rect x="37.068" y="104.769" width="22.05" height="9.121"/>
                    </g>
                    <g transform="matrix(2.38008,0,0,3.72932,-302.665,-98.1241)">
                        <rect x="37.068" y="104.769" width="22.05" height="9.121"/>
                    </g>
                </g>
            </g>
        </g>
    </g>
</svg>
